G04*
G04 #@! TF.GenerationSoftware,Altium Limited,Altium Designer,24.0.1 (36)*
G04*
G04 Layer_Color=128*
%FSLAX25Y25*%
%MOIN*%
G70*
G04*
G04 #@! TF.SameCoordinates,A26AD350-1B62-4F7C-A742-23546F987C93*
G04*
G04*
G04 #@! TF.FilePolarity,Positive*
G04*
G01*
G75*
%ADD11C,0.00500*%
D11*
X36000Y188500D02*
X39000D01*
X37500Y187000D02*
Y190000D01*
X26000Y188500D02*
X29000D01*
X27500Y187000D02*
Y190000D01*
X46000Y188500D02*
X49000D01*
X47500Y187000D02*
Y190000D01*
X46000Y198500D02*
X49000D01*
X47500Y197000D02*
Y200000D01*
X26000Y198500D02*
X29000D01*
X27500Y197000D02*
Y200000D01*
X36000Y198500D02*
X39000D01*
X37500Y197000D02*
Y200000D01*
X36000Y208500D02*
X39000D01*
X37500Y207000D02*
Y210000D01*
X26000Y208500D02*
X29000D01*
X27500Y207000D02*
Y210000D01*
X46000Y208500D02*
X49000D01*
X47500Y207000D02*
Y210000D01*
X46000Y218500D02*
X49000D01*
X47500Y217000D02*
Y220000D01*
X26000Y218500D02*
X29000D01*
X27500Y217000D02*
Y220000D01*
X36000Y218500D02*
X39000D01*
X37500Y217000D02*
Y220000D01*
X36000Y228500D02*
X39000D01*
X37500Y227000D02*
Y230000D01*
X26000Y228500D02*
X29000D01*
X27500Y227000D02*
Y230000D01*
X46000Y228500D02*
X49000D01*
X47500Y227000D02*
Y230000D01*
X46000Y238500D02*
X49000D01*
X47500Y237000D02*
Y240000D01*
X26000Y238500D02*
X29000D01*
X27500Y237000D02*
Y240000D01*
X36000Y238500D02*
X39000D01*
X37500Y237000D02*
Y240000D01*
X26000Y248500D02*
X29000D01*
X27500Y247000D02*
Y250000D01*
X36000Y248500D02*
X39000D01*
X37500Y247000D02*
Y250000D01*
X46000Y248500D02*
X49000D01*
X47500Y247000D02*
Y250000D01*
X26000Y258500D02*
X29000D01*
X27500Y257000D02*
Y260000D01*
X36000Y258500D02*
X39000D01*
X37500Y257000D02*
Y260000D01*
X46000Y258500D02*
X49000D01*
X47500Y257000D02*
Y260000D01*
X83335Y241409D02*
X87232D01*
X85283Y239461D02*
Y243358D01*
X83335Y267000D02*
X87232D01*
X85283Y265051D02*
Y268949D01*
X101051Y241409D02*
X104949D01*
X103000Y239461D02*
Y243358D01*
X101051Y267000D02*
X104949D01*
X103000Y265051D02*
Y268949D01*
X22500Y30000D02*
X25500D01*
X24000Y28500D02*
Y31500D01*
X32500Y30000D02*
X35500D01*
X34000Y28500D02*
Y31500D01*
X52500Y30000D02*
X55500D01*
X54000Y28500D02*
Y31500D01*
X42500Y30000D02*
X45500D01*
X44000Y28500D02*
Y31500D01*
X22500Y40000D02*
X25500D01*
X24000Y38500D02*
Y41500D01*
X32500Y40000D02*
X35500D01*
X34000Y38500D02*
Y41500D01*
X52500Y40000D02*
X55500D01*
X54000Y38500D02*
Y41500D01*
X42500Y40000D02*
X45500D01*
X44000Y38500D02*
Y41500D01*
X17500Y99000D02*
X20500D01*
X19000Y97500D02*
Y100500D01*
X17500Y109000D02*
X20500D01*
X19000Y107500D02*
Y110500D01*
X17500Y129000D02*
X20500D01*
X19000Y127500D02*
Y130500D01*
X17500Y139000D02*
X20500D01*
X19000Y137500D02*
Y140500D01*
X17500Y149000D02*
X20500D01*
X19000Y147500D02*
Y150500D01*
X47500Y159000D02*
X50500D01*
X49000Y157500D02*
Y160500D01*
X47500Y99000D02*
X50500D01*
X49000Y97500D02*
Y100500D01*
X47500Y109000D02*
X50500D01*
X49000Y107500D02*
Y110500D01*
X47500Y119000D02*
X50500D01*
X49000Y117500D02*
Y120500D01*
X47500Y129000D02*
X50500D01*
X49000Y127500D02*
Y130500D01*
X47500Y139000D02*
X50500D01*
X49000Y137500D02*
Y140500D01*
X47500Y149000D02*
X50500D01*
X49000Y147500D02*
Y150500D01*
X47500Y169000D02*
X50500D01*
X49000Y167500D02*
Y170500D01*
X17500Y169000D02*
X20500D01*
X19000Y167500D02*
Y170500D01*
X17500Y159000D02*
X20500D01*
X19000Y157500D02*
Y160500D01*
X17500Y119000D02*
X20500D01*
X19000Y117500D02*
Y120500D01*
X305500Y250000D02*
X308500D01*
X307000Y248500D02*
Y251500D01*
X275500Y250000D02*
X278500D01*
X277000Y248500D02*
Y251500D01*
X285500Y250000D02*
X288500D01*
X287000Y248500D02*
Y251500D01*
X295500Y250000D02*
X298500D01*
X297000Y248500D02*
Y251500D01*
X265500Y250000D02*
X268500D01*
X267000Y248500D02*
Y251500D01*
X288500Y190000D02*
X291500D01*
X290000Y188500D02*
Y191500D01*
X278500Y190000D02*
X281500D01*
X280000Y188500D02*
Y191500D01*
X268500Y190000D02*
X271500D01*
X270000Y188500D02*
Y191500D01*
X258500Y190000D02*
X261500D01*
X260000Y188500D02*
Y191500D01*
X193500Y30000D02*
X196500D01*
X195000Y28500D02*
Y31500D01*
X193500Y40000D02*
X196500D01*
X195000Y38500D02*
Y41500D01*
X193500Y50000D02*
X196500D01*
X195000Y48500D02*
Y51500D01*
X193500Y60000D02*
X196500D01*
X195000Y58500D02*
Y61500D01*
X193500Y70000D02*
X196500D01*
X195000Y68500D02*
Y71500D01*
X193500Y80000D02*
X196500D01*
X195000Y78500D02*
Y81500D01*
X123500Y220000D02*
X126500D01*
X125000Y218500D02*
Y221500D01*
X123500Y210000D02*
X126500D01*
X125000Y208500D02*
Y211500D01*
X123500Y200000D02*
X126500D01*
X125000Y198500D02*
Y201500D01*
X123500Y190000D02*
X126500D01*
X125000Y188500D02*
Y191500D01*
X123500Y150000D02*
X126500D01*
X125000Y148500D02*
Y151500D01*
X123500Y140000D02*
X126500D01*
X125000Y138500D02*
Y141500D01*
X123500Y130000D02*
X126500D01*
X125000Y128500D02*
Y131500D01*
X123500Y120000D02*
X126500D01*
X125000Y118500D02*
Y121500D01*
X123500Y100000D02*
X126500D01*
X125000Y98500D02*
Y101500D01*
X123500Y90000D02*
X126500D01*
X125000Y88500D02*
Y91500D01*
X123500Y80000D02*
X126500D01*
X125000Y78500D02*
Y81500D01*
X123500Y60000D02*
X126500D01*
X125000Y58500D02*
Y61500D01*
X193500Y220000D02*
X196500D01*
X195000Y218500D02*
Y221500D01*
X193500Y210000D02*
X196500D01*
X195000Y208500D02*
Y211500D01*
X193500Y200000D02*
X196500D01*
X195000Y198500D02*
Y201500D01*
X193500Y190000D02*
X196500D01*
X195000Y188500D02*
Y191500D01*
X193500Y180000D02*
X196500D01*
X195000Y178500D02*
Y181500D01*
X193500Y170000D02*
X196500D01*
X195000Y168500D02*
Y171500D01*
X193500Y160000D02*
X196500D01*
X195000Y158500D02*
Y161500D01*
X193500Y110000D02*
X196500D01*
X195000Y108500D02*
Y111500D01*
X193500Y100000D02*
X196500D01*
X195000Y98500D02*
Y101500D01*
X193500Y90000D02*
X196500D01*
X195000Y88500D02*
Y91500D01*
X193500Y120000D02*
X196500D01*
X195000Y118500D02*
Y121500D01*
X193500Y140000D02*
X196500D01*
X195000Y138500D02*
Y141500D01*
X193500Y150000D02*
X196500D01*
X195000Y148500D02*
Y151500D01*
X193500Y130000D02*
X196500D01*
X195000Y128500D02*
Y131500D01*
X123500Y40000D02*
X126500D01*
X125000Y38500D02*
Y41500D01*
X123500Y50000D02*
X126500D01*
X125000Y48500D02*
Y51500D01*
X123500Y70000D02*
X126500D01*
X125000Y68500D02*
Y71500D01*
X123500Y110000D02*
X126500D01*
X125000Y108500D02*
Y111500D01*
X123500Y160000D02*
X126500D01*
X125000Y158500D02*
Y161500D01*
X123500Y170000D02*
X126500D01*
X125000Y168500D02*
Y171500D01*
X123500Y180000D02*
X126500D01*
X125000Y178500D02*
Y181500D01*
X123500Y30000D02*
X126500D01*
X125000Y28500D02*
Y31500D01*
X98500Y160000D02*
X101500D01*
X100000Y158500D02*
Y161500D01*
X98500Y150000D02*
X101500D01*
X100000Y148500D02*
Y151500D01*
X98500Y120000D02*
X101500D01*
X100000Y118500D02*
Y121500D01*
X98500Y140000D02*
X101500D01*
X100000Y138500D02*
Y141500D01*
X98500Y130000D02*
X101500D01*
X100000Y128500D02*
Y131500D01*
X98500Y110000D02*
X101500D01*
X100000Y108500D02*
Y111500D01*
X98500Y100000D02*
X101500D01*
X100000Y98500D02*
Y101500D01*
X98500Y90000D02*
X101500D01*
X100000Y88500D02*
Y91500D01*
X98500Y80000D02*
X101500D01*
X100000Y78500D02*
Y81500D01*
X98500Y70000D02*
X101500D01*
X100000Y68500D02*
Y71500D01*
X98500Y60000D02*
X101500D01*
X100000Y58500D02*
Y61500D01*
X98500Y50000D02*
X101500D01*
X100000Y48500D02*
Y51500D01*
X98500Y30000D02*
X101500D01*
X100000Y28500D02*
Y31500D01*
X98500Y40000D02*
X101500D01*
X100000Y38500D02*
Y41500D01*
X98500Y170000D02*
X101500D01*
X100000Y168500D02*
Y171500D01*
X98500Y180000D02*
X101500D01*
X100000Y178500D02*
Y181500D01*
X98500Y190000D02*
X101500D01*
X100000Y188500D02*
Y191500D01*
X98500Y200000D02*
X101500D01*
X100000Y198500D02*
Y201500D01*
X98500Y210000D02*
X101500D01*
X100000Y208500D02*
Y211500D01*
X98500Y220000D02*
X101500D01*
X100000Y218500D02*
Y221500D01*
X218500Y220000D02*
X221500D01*
X220000Y218500D02*
Y221500D01*
X218500Y210000D02*
X221500D01*
X220000Y208500D02*
Y211500D01*
X218500Y200000D02*
X221500D01*
X220000Y198500D02*
Y201500D01*
X218500Y190000D02*
X221500D01*
X220000Y188500D02*
Y191500D01*
X218500Y180000D02*
X221500D01*
X220000Y178500D02*
Y181500D01*
X218500Y170000D02*
X221500D01*
X220000Y168500D02*
Y171500D01*
X218500Y40000D02*
X221500D01*
X220000Y38500D02*
Y41500D01*
X218500Y30000D02*
X221500D01*
X220000Y28500D02*
Y31500D01*
X218500Y50000D02*
X221500D01*
X220000Y48500D02*
Y51500D01*
X218500Y60000D02*
X221500D01*
X220000Y58500D02*
Y61500D01*
X218500Y70000D02*
X221500D01*
X220000Y68500D02*
Y71500D01*
X218500Y80000D02*
X221500D01*
X220000Y78500D02*
Y81500D01*
X218500Y90000D02*
X221500D01*
X220000Y88500D02*
Y91500D01*
X218500Y100000D02*
X221500D01*
X220000Y98500D02*
Y101500D01*
X218500Y110000D02*
X221500D01*
X220000Y108500D02*
Y111500D01*
X218500Y130000D02*
X221500D01*
X220000Y128500D02*
Y131500D01*
X218500Y140000D02*
X221500D01*
X220000Y138500D02*
Y141500D01*
X218500Y120000D02*
X221500D01*
X220000Y118500D02*
Y121500D01*
X218500Y150000D02*
X221500D01*
X220000Y148500D02*
Y151500D01*
X218500Y160000D02*
X221500D01*
X220000Y158500D02*
Y161500D01*
X125760Y257150D02*
X137571D01*
X131665Y251244D02*
Y263055D01*
X186260Y257150D02*
X198071D01*
X192165Y251244D02*
Y263055D01*
X195665Y303150D02*
X198665D01*
X197165Y301650D02*
Y304650D01*
X185665Y303150D02*
X188665D01*
X187165Y301650D02*
Y304650D01*
X135665Y303150D02*
X138665D01*
X137165Y301650D02*
Y304650D01*
X125665Y303150D02*
X128665D01*
X127165Y301650D02*
Y304650D01*
X145665Y303150D02*
X148665D01*
X147165Y301650D02*
Y304650D01*
X155665Y303150D02*
X158665D01*
X157165Y301650D02*
Y304650D01*
X165665Y303150D02*
X168665D01*
X167165Y301650D02*
Y304650D01*
X175665Y303150D02*
X178665D01*
X177165Y301650D02*
Y304650D01*
X238744Y277000D02*
X241697D01*
X240220Y275524D02*
Y278476D01*
X266303Y277000D02*
X269256D01*
X267779Y275524D02*
Y278476D01*
X226894Y296000D02*
X231106D01*
X229000Y293894D02*
Y298106D01*
X216894Y296000D02*
X221106D01*
X219000Y293894D02*
Y298106D01*
X273500Y300000D02*
X276500D01*
X275000Y298500D02*
Y301500D01*
X263500Y300000D02*
X266500D01*
X265000Y298500D02*
Y301500D01*
X85000Y300500D02*
X88000D01*
X86500Y299000D02*
Y302000D01*
X95000Y300500D02*
X98000D01*
X96500Y299000D02*
Y302000D01*
X75000Y300500D02*
X78000D01*
X76500Y299000D02*
Y302000D01*
X65000Y300500D02*
X68000D01*
X66500Y299000D02*
Y302000D01*
X294094Y15000D02*
X305906D01*
X300000Y9094D02*
Y20906D01*
X294094Y300000D02*
X305906D01*
X300000Y294094D02*
Y305906D01*
X9094Y15000D02*
X20906D01*
X15000Y9094D02*
Y20906D01*
X9094Y300000D02*
X20906D01*
X15000Y294094D02*
Y305906D01*
X25500Y179000D02*
X26500D01*
X26000Y178500D02*
Y179500D01*
X27500Y179000D02*
X28500D01*
X28000Y178500D02*
Y179500D01*
X59287Y105732D02*
X60287D01*
X59787Y105232D02*
Y106232D01*
X59287Y103732D02*
X60287D01*
X59787Y103232D02*
Y104232D01*
X57287Y105732D02*
X58287D01*
X57787Y105232D02*
Y106232D01*
X57287Y103732D02*
X58287D01*
X57787Y103232D02*
Y104232D01*
X78240Y277590D02*
X79240D01*
X78740Y277091D02*
Y278091D01*
X78240Y275590D02*
X79240D01*
X78740Y275091D02*
Y276091D01*
X76240Y277590D02*
X77240D01*
X76740Y277091D02*
Y278091D01*
X76240Y275590D02*
X77240D01*
X76740Y275091D02*
Y276091D01*
X16500Y51000D02*
X17500D01*
X17000Y50500D02*
Y51500D01*
X16500Y53000D02*
X17500D01*
X17000Y52500D02*
Y53500D01*
X14500Y51000D02*
X15500D01*
X15000Y50500D02*
Y51500D01*
X14500Y53000D02*
X15500D01*
X15000Y52500D02*
Y53500D01*
X25500Y177000D02*
X26500D01*
X26000Y176500D02*
Y177500D01*
X294500Y284000D02*
X295500D01*
X295000Y283500D02*
Y284500D01*
X296500Y284000D02*
X297500D01*
X297000Y283500D02*
Y284500D01*
X294500Y282000D02*
X295500D01*
X295000Y281500D02*
Y282500D01*
X296500Y282000D02*
X297500D01*
X297000Y281500D02*
Y282500D01*
X289500Y39000D02*
X290500D01*
X290000Y38500D02*
Y39500D01*
X291500Y37000D02*
X292500D01*
X292000Y36500D02*
Y37500D01*
X291500Y39000D02*
X292500D01*
X292000Y38500D02*
Y39500D01*
X289500Y37000D02*
X290500D01*
X290000Y36500D02*
Y37500D01*
X279500Y147000D02*
X280500D01*
X280000Y146500D02*
Y147500D01*
X281500Y149000D02*
X282500D01*
X282000Y148500D02*
Y149500D01*
X281500Y147000D02*
X282500D01*
X282000Y146500D02*
Y147500D01*
X279500Y149000D02*
X280500D01*
X280000Y148500D02*
Y149500D01*
X29500Y305000D02*
X30500D01*
X30000Y304500D02*
Y305500D01*
X27500Y305000D02*
X28500D01*
X28000Y304500D02*
Y305500D01*
X29500Y307000D02*
X30500D01*
X30000Y306500D02*
Y307500D01*
X27500Y307000D02*
X28500D01*
X28000Y306500D02*
Y307500D01*
X27500Y177000D02*
X28500D01*
X28000Y176500D02*
Y177500D01*
X154500Y258000D02*
X155500D01*
X155000Y257500D02*
Y258500D01*
X152500Y258000D02*
X153500D01*
X153000Y257500D02*
Y258500D01*
X154500Y260000D02*
X155500D01*
X155000Y259500D02*
Y260500D01*
X152500Y260000D02*
X153500D01*
X153000Y259500D02*
Y260500D01*
M02*
