G04*
G04 #@! TF.GenerationSoftware,Altium Limited,Altium Designer,24.0.1 (36)*
G04*
G04 Layer_Physical_Order=2*
G04 Layer_Color=16711680*
%FSLAX25Y25*%
%MOIN*%
G70*
G04*
G04 #@! TF.SameCoordinates,A26AD350-1B62-4F7C-A742-23546F987C93*
G04*
G04*
G04 #@! TF.FilePolarity,Positive*
G04*
G01*
G75*
%ADD13C,0.02500*%
%ADD24R,0.06000X0.06000*%
%ADD25C,0.06000*%
%ADD26R,0.05898X0.05898*%
%ADD27C,0.05898*%
%ADD28C,0.04953*%
%ADD29R,0.06339X0.06339*%
%ADD30C,0.06339*%
%ADD31C,0.01000*%
%ADD32C,0.05000*%
G36*
X314961D02*
X0D01*
Y314961D01*
X314961D01*
Y0D01*
D02*
G37*
%LPC*%
G36*
X29500Y308417D02*
X29150Y308272D01*
X29000Y308121D01*
X28850Y308272D01*
X28500Y308417D01*
Y307000D01*
X28000D01*
Y306500D01*
X26583D01*
X26728Y306150D01*
X26879Y306000D01*
X26728Y305850D01*
X26583Y305500D01*
X28000D01*
Y305000D01*
X28500D01*
Y303584D01*
X28850Y303728D01*
X29000Y303879D01*
X29150Y303728D01*
X29500Y303584D01*
Y305000D01*
X30000D01*
Y305500D01*
X31416D01*
X31272Y305850D01*
X31121Y306000D01*
X31272Y306150D01*
X31416Y306500D01*
X30000D01*
Y307000D01*
X29500D01*
Y308417D01*
D02*
G37*
G36*
X30500D02*
Y307500D01*
X31416D01*
X31272Y307850D01*
X30850Y308272D01*
X30500Y308417D01*
D02*
G37*
G36*
X27500D02*
X27150Y308272D01*
X26728Y307850D01*
X26583Y307500D01*
X27500D01*
Y308417D01*
D02*
G37*
G36*
X191165Y307150D02*
X187665D01*
Y303650D01*
X191165D01*
Y307150D01*
D02*
G37*
G36*
X186665D02*
X183165D01*
Y303650D01*
X186665D01*
Y307150D01*
D02*
G37*
G36*
X31416Y304500D02*
X30500D01*
Y303584D01*
X30850Y303728D01*
X31272Y304150D01*
X31416Y304500D01*
D02*
G37*
G36*
X27500D02*
X26583D01*
X26728Y304150D01*
X27150Y303728D01*
X27500Y303584D01*
Y304500D01*
D02*
G37*
G36*
X70500D02*
X67000D01*
Y301000D01*
X70500D01*
Y304500D01*
D02*
G37*
G36*
X66000D02*
X62500D01*
Y301000D01*
X66000D01*
Y304500D01*
D02*
G37*
G36*
X269000Y304000D02*
X265500D01*
Y300500D01*
X269000D01*
Y304000D01*
D02*
G37*
G36*
X264500D02*
X261000D01*
Y300500D01*
X264500D01*
Y304000D01*
D02*
G37*
G36*
X191165Y302650D02*
X187665D01*
Y299150D01*
X191165D01*
Y302650D01*
D02*
G37*
G36*
X186665D02*
X183165D01*
Y299150D01*
X186665D01*
Y302650D01*
D02*
G37*
G36*
X177692Y307150D02*
X176639D01*
X175621Y306877D01*
X174709Y306350D01*
X173965Y305606D01*
X173438Y304694D01*
X173165Y303676D01*
Y302623D01*
X173438Y301606D01*
X173965Y300694D01*
X174709Y299949D01*
X175621Y299422D01*
X176639Y299150D01*
X177692D01*
X178709Y299422D01*
X179621Y299949D01*
X180366Y300694D01*
X180893Y301606D01*
X181165Y302623D01*
Y303676D01*
X180893Y304694D01*
X180366Y305606D01*
X179621Y306350D01*
X178709Y306877D01*
X177692Y307150D01*
D02*
G37*
G36*
X167692D02*
X166639D01*
X165621Y306877D01*
X164709Y306350D01*
X163965Y305606D01*
X163438Y304694D01*
X163165Y303676D01*
Y302623D01*
X163438Y301606D01*
X163965Y300694D01*
X164709Y299949D01*
X165621Y299422D01*
X166639Y299150D01*
X167692D01*
X168709Y299422D01*
X169621Y299949D01*
X170366Y300694D01*
X170893Y301606D01*
X171165Y302623D01*
Y303676D01*
X170893Y304694D01*
X170366Y305606D01*
X169621Y306350D01*
X168709Y306877D01*
X167692Y307150D01*
D02*
G37*
G36*
X157692D02*
X156639D01*
X155621Y306877D01*
X154709Y306350D01*
X153965Y305606D01*
X153438Y304694D01*
X153165Y303676D01*
Y302623D01*
X153438Y301606D01*
X153965Y300694D01*
X154709Y299949D01*
X155621Y299422D01*
X156639Y299150D01*
X157692D01*
X158709Y299422D01*
X159621Y299949D01*
X160366Y300694D01*
X160893Y301606D01*
X161165Y302623D01*
Y303676D01*
X160893Y304694D01*
X160366Y305606D01*
X159621Y306350D01*
X158709Y306877D01*
X157692Y307150D01*
D02*
G37*
G36*
X147692D02*
X146639D01*
X145621Y306877D01*
X144709Y306350D01*
X143965Y305606D01*
X143438Y304694D01*
X143165Y303676D01*
Y302623D01*
X143438Y301606D01*
X143965Y300694D01*
X144709Y299949D01*
X145621Y299422D01*
X146639Y299150D01*
X147692D01*
X148709Y299422D01*
X149621Y299949D01*
X150366Y300694D01*
X150893Y301606D01*
X151165Y302623D01*
Y303676D01*
X150893Y304694D01*
X150366Y305606D01*
X149621Y306350D01*
X148709Y306877D01*
X147692Y307150D01*
D02*
G37*
G36*
X137692D02*
X136639D01*
X135621Y306877D01*
X134709Y306350D01*
X133965Y305606D01*
X133438Y304694D01*
X133165Y303676D01*
Y302623D01*
X133438Y301606D01*
X133965Y300694D01*
X134709Y299949D01*
X135621Y299422D01*
X136639Y299150D01*
X137692D01*
X138709Y299422D01*
X139621Y299949D01*
X140366Y300694D01*
X140893Y301606D01*
X141165Y302623D01*
Y303676D01*
X140893Y304694D01*
X140366Y305606D01*
X139621Y306350D01*
X138709Y306877D01*
X137692Y307150D01*
D02*
G37*
G36*
X127692D02*
X126639D01*
X125621Y306877D01*
X124709Y306350D01*
X123965Y305606D01*
X123438Y304694D01*
X123165Y303676D01*
Y302623D01*
X123438Y301606D01*
X123965Y300694D01*
X124709Y299949D01*
X125621Y299422D01*
X126639Y299150D01*
X127692D01*
X128709Y299422D01*
X129621Y299949D01*
X130366Y300694D01*
X130893Y301606D01*
X131165Y302623D01*
Y303676D01*
X130893Y304694D01*
X130366Y305606D01*
X129621Y306350D01*
X128709Y306877D01*
X127692Y307150D01*
D02*
G37*
G36*
X87027Y304500D02*
X85973D01*
X84956Y304227D01*
X84044Y303701D01*
X83299Y302956D01*
X82773Y302044D01*
X82500Y301027D01*
Y299973D01*
X82773Y298956D01*
X83075Y298432D01*
X82675Y298125D01*
X80500Y300300D01*
Y301027D01*
X80227Y302044D01*
X79701Y302956D01*
X78956Y303701D01*
X78044Y304227D01*
X77027Y304500D01*
X75973D01*
X74956Y304227D01*
X74044Y303701D01*
X73517Y303174D01*
X73235Y303057D01*
X72504Y302496D01*
X71943Y301765D01*
X71590Y300914D01*
X71470Y300000D01*
X71590Y299086D01*
X71943Y298235D01*
X72504Y297504D01*
X72695Y297312D01*
X73426Y296751D01*
X74278Y296399D01*
X74437Y296378D01*
X92209Y278607D01*
X92940Y278046D01*
X93791Y277693D01*
X94705Y277573D01*
X102092D01*
X112132Y267533D01*
Y257338D01*
X112252Y256425D01*
X112604Y255573D01*
X113165Y254842D01*
X122760Y245248D01*
X123491Y244687D01*
X124342Y244334D01*
X125256Y244214D01*
X134609D01*
X135470Y243353D01*
Y85462D01*
X129500Y79492D01*
X129000Y79700D01*
Y80527D01*
X128727Y81544D01*
X128201Y82456D01*
X127456Y83201D01*
X126544Y83727D01*
X125527Y84000D01*
X124473D01*
X123456Y83727D01*
X122544Y83201D01*
X121799Y82456D01*
X121273Y81544D01*
X121000Y80527D01*
Y79473D01*
X121273Y78456D01*
X121799Y77544D01*
X122544Y76799D01*
X123456Y76273D01*
X124473Y76000D01*
X125300D01*
X125507Y75500D01*
X123837Y73830D01*
X123456Y73727D01*
X123115Y73530D01*
X101885D01*
X101544Y73727D01*
X100527Y74000D01*
X99473D01*
X98456Y73727D01*
X97544Y73201D01*
X96799Y72456D01*
X96273Y71544D01*
X96000Y70527D01*
Y69473D01*
X96273Y68456D01*
X96799Y67544D01*
X97544Y66799D01*
X98456Y66273D01*
X99473Y66000D01*
X100527D01*
X101544Y66273D01*
X101885Y66470D01*
X123115D01*
X123456Y66273D01*
X124473Y66000D01*
X125527D01*
X126544Y66273D01*
X127456Y66799D01*
X128201Y67544D01*
X128727Y68456D01*
X128830Y68837D01*
X141496Y81504D01*
X142057Y82235D01*
X142410Y83086D01*
X142530Y84000D01*
Y244815D01*
X142410Y245729D01*
X142057Y246580D01*
X141496Y247311D01*
X138567Y250240D01*
X137836Y250801D01*
X136985Y251154D01*
X136180Y251260D01*
X135982Y251729D01*
X136067Y251786D01*
X137029Y252748D01*
X137785Y253879D01*
X138305Y255135D01*
X138571Y256469D01*
Y257830D01*
X138305Y259164D01*
X137785Y260421D01*
X137029Y261552D01*
X136067Y262513D01*
X134936Y263269D01*
X133680Y263790D01*
X132345Y264055D01*
X130985D01*
X129651Y263790D01*
X128394Y263269D01*
X127263Y262513D01*
X126302Y261552D01*
X125546Y260421D01*
X125025Y259164D01*
X124760Y257830D01*
Y256469D01*
X125025Y255135D01*
X125546Y253879D01*
X126302Y252748D01*
X127237Y251812D01*
X127201Y251642D01*
X127065Y251331D01*
X126702Y251291D01*
X119192Y258801D01*
Y268995D01*
X119192Y268995D01*
X119072Y269909D01*
X118719Y270760D01*
X118158Y271491D01*
X106050Y283599D01*
X105319Y284160D01*
X104468Y284513D01*
X103554Y284633D01*
X96167D01*
X84125Y296675D01*
X84432Y297075D01*
X84956Y296773D01*
X85973Y296500D01*
X87027D01*
X88044Y296773D01*
X88956Y297299D01*
X89701Y298044D01*
X90227Y298956D01*
X90500Y299973D01*
Y301027D01*
X90227Y302044D01*
X89701Y302956D01*
X88956Y303701D01*
X88044Y304227D01*
X87027Y304500D01*
D02*
G37*
G36*
X233169Y300169D02*
X229500D01*
Y296500D01*
X233169D01*
Y300169D01*
D02*
G37*
G36*
X97027Y304500D02*
X95973D01*
X94956Y304227D01*
X94044Y303701D01*
X93299Y302956D01*
X92773Y302044D01*
X92500Y301027D01*
Y299973D01*
X92773Y298956D01*
X93299Y298044D01*
X94044Y297299D01*
X94956Y296773D01*
X95973Y296500D01*
X97027D01*
X98044Y296773D01*
X98956Y297299D01*
X99701Y298044D01*
X100227Y298956D01*
X100500Y299973D01*
Y301027D01*
X100227Y302044D01*
X99701Y302956D01*
X98956Y303701D01*
X98044Y304227D01*
X97027Y304500D01*
D02*
G37*
G36*
X70500Y300000D02*
X67000D01*
Y296500D01*
X70500D01*
Y300000D01*
D02*
G37*
G36*
X66000D02*
X62500D01*
Y296500D01*
X66000D01*
Y300000D01*
D02*
G37*
G36*
X228500Y300169D02*
X224831D01*
Y296500D01*
X228500D01*
Y300169D01*
D02*
G37*
G36*
X269000Y299500D02*
X265500D01*
Y296000D01*
X269000D01*
Y299500D01*
D02*
G37*
G36*
X264500D02*
X261000D01*
Y296000D01*
X264500D01*
Y299500D01*
D02*
G37*
G36*
X300680Y306906D02*
X299320D01*
X297986Y306640D01*
X296729Y306120D01*
X295598Y305364D01*
X294636Y304402D01*
X293880Y303271D01*
X293360Y302014D01*
X293094Y300680D01*
Y299320D01*
X293360Y297986D01*
X293880Y296729D01*
X294636Y295598D01*
X295598Y294636D01*
X296729Y293880D01*
X297986Y293360D01*
X299320Y293094D01*
X300680D01*
X302014Y293360D01*
X303271Y293880D01*
X304402Y294636D01*
X305364Y295598D01*
X306120Y296729D01*
X306640Y297986D01*
X306906Y299320D01*
Y300680D01*
X306640Y302014D01*
X306120Y303271D01*
X305364Y304402D01*
X304402Y305364D01*
X303271Y306120D01*
X302014Y306640D01*
X300680Y306906D01*
D02*
G37*
G36*
X15680D02*
X14320D01*
X12986Y306640D01*
X11729Y306120D01*
X10598Y305364D01*
X9636Y304402D01*
X8880Y303271D01*
X8360Y302014D01*
X8095Y300680D01*
Y299320D01*
X8360Y297986D01*
X8880Y296729D01*
X9636Y295598D01*
X10598Y294636D01*
X11729Y293880D01*
X12986Y293360D01*
X14320Y293094D01*
X15680D01*
X17014Y293360D01*
X18271Y293880D01*
X19402Y294636D01*
X20364Y295598D01*
X21120Y296729D01*
X21640Y297986D01*
X21905Y299320D01*
Y300680D01*
X21640Y302014D01*
X21120Y303271D01*
X20364Y304402D01*
X19402Y305364D01*
X18271Y306120D01*
X17014Y306640D01*
X15680Y306906D01*
D02*
G37*
G36*
X233169Y295500D02*
X229500D01*
Y291831D01*
X233169D01*
Y295500D01*
D02*
G37*
G36*
X228500D02*
X224831D01*
Y291831D01*
X228500D01*
Y295500D01*
D02*
G37*
G36*
X296500Y285417D02*
X296150Y285272D01*
X296000Y285121D01*
X295850Y285272D01*
X295500Y285417D01*
Y284000D01*
X295000D01*
Y283500D01*
X293583D01*
X293728Y283150D01*
X293879Y283000D01*
X293728Y282850D01*
X293583Y282500D01*
X295000D01*
Y282000D01*
X295500D01*
Y280584D01*
X295850Y280728D01*
X296000Y280879D01*
X296150Y280728D01*
X296500Y280584D01*
Y282000D01*
X297000D01*
Y282500D01*
X298416D01*
X298272Y282850D01*
X298121Y283000D01*
X298272Y283150D01*
X298416Y283500D01*
X297000D01*
Y284000D01*
X296500D01*
Y285417D01*
D02*
G37*
G36*
X297500D02*
Y284500D01*
X298416D01*
X298272Y284850D01*
X297850Y285272D01*
X297500Y285417D01*
D02*
G37*
G36*
X294500D02*
X294150Y285272D01*
X293728Y284850D01*
X293583Y284500D01*
X294500D01*
Y285417D01*
D02*
G37*
G36*
X298416Y281500D02*
X297500D01*
Y280584D01*
X297850Y280728D01*
X298272Y281150D01*
X298416Y281500D01*
D02*
G37*
G36*
X294500D02*
X293583D01*
X293728Y281150D01*
X294150Y280728D01*
X294500Y280584D01*
Y281500D01*
D02*
G37*
G36*
X78240Y279007D02*
X77890Y278862D01*
X77740Y278712D01*
X77590Y278862D01*
X77240Y279007D01*
Y277590D01*
X76740D01*
Y277091D01*
X75324D01*
X75468Y276741D01*
X75619Y276590D01*
X75468Y276440D01*
X75324Y276091D01*
X76740D01*
Y275590D01*
X77240D01*
Y274174D01*
X77590Y274319D01*
X77740Y274469D01*
X77890Y274319D01*
X78240Y274174D01*
Y275590D01*
X78740D01*
Y276091D01*
X80157D01*
X80012Y276440D01*
X79861Y276590D01*
X80012Y276741D01*
X80157Y277091D01*
X78740D01*
Y277590D01*
X78240D01*
Y279007D01*
D02*
G37*
G36*
X79240D02*
Y278091D01*
X80157D01*
X80012Y278440D01*
X79590Y278862D01*
X79240Y279007D01*
D02*
G37*
G36*
X76240D02*
X75890Y278862D01*
X75468Y278440D01*
X75324Y278091D01*
X76240D01*
Y279007D01*
D02*
G37*
G36*
X80157Y275091D02*
X79240D01*
Y274174D01*
X79590Y274319D01*
X80012Y274741D01*
X80157Y275091D01*
D02*
G37*
G36*
X76240D02*
X75324D01*
X75468Y274741D01*
X75890Y274319D01*
X76240Y274174D01*
Y275091D01*
D02*
G37*
G36*
X219549Y300169D02*
X218451D01*
X217391Y299885D01*
X216440Y299336D01*
X215664Y298560D01*
X215115Y297609D01*
X214831Y296549D01*
Y295451D01*
X215115Y294391D01*
X215470Y293776D01*
Y285000D01*
X215590Y284086D01*
X215943Y283235D01*
X216504Y282504D01*
X224504Y274504D01*
X225235Y273943D01*
X226086Y273590D01*
X227000Y273470D01*
X240220D01*
X240629Y273524D01*
X240678D01*
X240725Y273536D01*
X241134Y273590D01*
X241515Y273748D01*
X241562Y273761D01*
X241605Y273785D01*
X241986Y273943D01*
X242313Y274194D01*
X242355Y274218D01*
X242390Y274253D01*
X242717Y274504D01*
X242968Y274831D01*
X243002Y274866D01*
X243027Y274908D01*
X243278Y275235D01*
X243436Y275616D01*
X243460Y275658D01*
X243473Y275705D01*
X243630Y276086D01*
X243684Y276495D01*
X243697Y276542D01*
Y276591D01*
X243751Y277000D01*
X243697Y277409D01*
Y277458D01*
X243684Y277505D01*
X243630Y277914D01*
X243473Y278295D01*
X243460Y278342D01*
X243436Y278384D01*
X243278Y278765D01*
X243027Y279092D01*
X243002Y279134D01*
X242968Y279169D01*
X242717Y279496D01*
X242390Y279747D01*
X242355Y279782D01*
X242313Y279806D01*
X241986Y280057D01*
X241605Y280215D01*
X241562Y280240D01*
X241515Y280252D01*
X241134Y280410D01*
X240725Y280464D01*
X240678Y280476D01*
X240629D01*
X240220Y280530D01*
X228462D01*
X222530Y286462D01*
Y293776D01*
X222885Y294391D01*
X223169Y295451D01*
Y296549D01*
X222885Y297609D01*
X222336Y298560D01*
X221560Y299336D01*
X220609Y299885D01*
X219549Y300169D01*
D02*
G37*
G36*
X89232Y270949D02*
X85783D01*
Y267500D01*
X89232D01*
Y270949D01*
D02*
G37*
G36*
X84784D02*
X81335D01*
Y267500D01*
X84784D01*
Y270949D01*
D02*
G37*
G36*
X103520D02*
X102480D01*
X101476Y270680D01*
X100575Y270160D01*
X99840Y269425D01*
X99320Y268524D01*
X99051Y267520D01*
Y266480D01*
X99320Y265476D01*
X99840Y264575D01*
X100575Y263840D01*
X101476Y263320D01*
X102480Y263051D01*
X103520D01*
X104524Y263320D01*
X105425Y263840D01*
X106160Y264575D01*
X106680Y265476D01*
X106949Y266480D01*
Y267520D01*
X106680Y268524D01*
X106160Y269425D01*
X105425Y270160D01*
X104524Y270680D01*
X103520Y270949D01*
D02*
G37*
G36*
X89232Y266500D02*
X85783D01*
Y263051D01*
X89232D01*
Y266500D01*
D02*
G37*
G36*
X84784D02*
X81335D01*
Y263051D01*
X84784D01*
Y266500D01*
D02*
G37*
G36*
X154500Y261417D02*
X154150Y261272D01*
X154000Y261121D01*
X153850Y261272D01*
X153500Y261417D01*
Y260000D01*
X153000D01*
Y259500D01*
X151584D01*
X151728Y259150D01*
X151879Y259000D01*
X151728Y258850D01*
X151584Y258500D01*
X153000D01*
Y258000D01*
X153500D01*
Y256583D01*
X153850Y256728D01*
X154000Y256879D01*
X154150Y256728D01*
X154500Y256583D01*
Y258000D01*
X155000D01*
Y258500D01*
X156416D01*
X156272Y258850D01*
X156121Y259000D01*
X156272Y259150D01*
X156416Y259500D01*
X155000D01*
Y260000D01*
X154500D01*
Y261417D01*
D02*
G37*
G36*
X155500D02*
Y260500D01*
X156416D01*
X156272Y260850D01*
X155850Y261272D01*
X155500Y261417D01*
D02*
G37*
G36*
X152500D02*
X152150Y261272D01*
X151728Y260850D01*
X151584Y260500D01*
X152500D01*
Y261417D01*
D02*
G37*
G36*
X41500Y262500D02*
X38000D01*
Y259000D01*
X41500D01*
Y262500D01*
D02*
G37*
G36*
X37000D02*
X33500D01*
Y259000D01*
X37000D01*
Y262500D01*
D02*
G37*
G36*
X31500D02*
X28000D01*
Y259000D01*
X31500D01*
Y262500D01*
D02*
G37*
G36*
X27000D02*
X23500D01*
Y259000D01*
X27000D01*
Y262500D01*
D02*
G37*
G36*
X156416Y257500D02*
X155500D01*
Y256583D01*
X155850Y256728D01*
X156272Y257150D01*
X156416Y257500D01*
D02*
G37*
G36*
X152500D02*
X151584D01*
X151728Y257150D01*
X152150Y256728D01*
X152500Y256583D01*
Y257500D01*
D02*
G37*
G36*
X48027Y262500D02*
X46973D01*
X45956Y262227D01*
X45044Y261701D01*
X44299Y260956D01*
X43773Y260044D01*
X43500Y259027D01*
Y257973D01*
X43773Y256956D01*
X44299Y256044D01*
X45044Y255299D01*
X45956Y254773D01*
X46973Y254500D01*
X48027D01*
X49044Y254773D01*
X49956Y255299D01*
X50701Y256044D01*
X51227Y256956D01*
X51500Y257973D01*
Y259027D01*
X51227Y260044D01*
X50701Y260956D01*
X49956Y261701D01*
X49044Y262227D01*
X48027Y262500D01*
D02*
G37*
G36*
X41500Y258000D02*
X38000D01*
Y254500D01*
X41500D01*
Y258000D01*
D02*
G37*
G36*
X37000D02*
X33500D01*
Y254500D01*
X37000D01*
Y258000D01*
D02*
G37*
G36*
X31500D02*
X28000D01*
Y254500D01*
X31500D01*
Y258000D01*
D02*
G37*
G36*
X27000D02*
X23500D01*
Y254500D01*
X27000D01*
Y258000D01*
D02*
G37*
G36*
X311000Y254000D02*
X307500D01*
Y250500D01*
X311000D01*
Y254000D01*
D02*
G37*
G36*
X306500D02*
X303000D01*
Y250500D01*
X306500D01*
Y254000D01*
D02*
G37*
G36*
X192845Y264055D02*
X191485D01*
X190151Y263790D01*
X188894Y263269D01*
X187763Y262513D01*
X186802Y261552D01*
X186046Y260421D01*
X185525Y259164D01*
X185260Y257830D01*
Y256469D01*
X185525Y255135D01*
X186046Y253879D01*
X186802Y252748D01*
X187763Y251786D01*
X188894Y251030D01*
X190151Y250510D01*
X191485Y250244D01*
X192845D01*
X194180Y250510D01*
X195436Y251030D01*
X196567Y251786D01*
X197529Y252748D01*
X198285Y253879D01*
X198805Y255135D01*
X199071Y256469D01*
Y257830D01*
X198805Y259164D01*
X198285Y260421D01*
X197529Y261552D01*
X196567Y262513D01*
X195436Y263269D01*
X194180Y263790D01*
X192845Y264055D01*
D02*
G37*
G36*
X41500Y252500D02*
X38000D01*
Y249000D01*
X41500D01*
Y252500D01*
D02*
G37*
G36*
X37000D02*
X33500D01*
Y249000D01*
X37000D01*
Y252500D01*
D02*
G37*
G36*
X31500D02*
X28000D01*
Y249000D01*
X31500D01*
Y252500D01*
D02*
G37*
G36*
X27000D02*
X23500D01*
Y249000D01*
X27000D01*
Y252500D01*
D02*
G37*
G36*
X311000Y249500D02*
X307500D01*
Y246000D01*
X311000D01*
Y249500D01*
D02*
G37*
G36*
X306500D02*
X303000D01*
Y246000D01*
X306500D01*
Y249500D01*
D02*
G37*
G36*
X297527Y254000D02*
X296473D01*
X295456Y253727D01*
X294544Y253201D01*
X293799Y252456D01*
X293273Y251544D01*
X293000Y250527D01*
Y249473D01*
X293273Y248456D01*
X293799Y247544D01*
X294544Y246799D01*
X295456Y246273D01*
X296473Y246000D01*
X297527D01*
X298544Y246273D01*
X299456Y246799D01*
X300201Y247544D01*
X300727Y248456D01*
X301000Y249473D01*
Y250527D01*
X300727Y251544D01*
X300201Y252456D01*
X299456Y253201D01*
X298544Y253727D01*
X297527Y254000D01*
D02*
G37*
G36*
X287527D02*
X286473D01*
X285456Y253727D01*
X284544Y253201D01*
X283799Y252456D01*
X283273Y251544D01*
X283000Y250527D01*
Y249473D01*
X283273Y248456D01*
X283799Y247544D01*
X284544Y246799D01*
X285456Y246273D01*
X286473Y246000D01*
X287527D01*
X288544Y246273D01*
X289456Y246799D01*
X290201Y247544D01*
X290727Y248456D01*
X291000Y249473D01*
Y250527D01*
X290727Y251544D01*
X290201Y252456D01*
X289456Y253201D01*
X288544Y253727D01*
X287527Y254000D01*
D02*
G37*
G36*
X277527D02*
X276473D01*
X275456Y253727D01*
X274544Y253201D01*
X273799Y252456D01*
X273273Y251544D01*
X273000Y250527D01*
Y249473D01*
X273273Y248456D01*
X273799Y247544D01*
X274544Y246799D01*
X275456Y246273D01*
X276473Y246000D01*
X277527D01*
X278544Y246273D01*
X279456Y246799D01*
X280201Y247544D01*
X280727Y248456D01*
X281000Y249473D01*
Y250527D01*
X280727Y251544D01*
X280201Y252456D01*
X279456Y253201D01*
X278544Y253727D01*
X277527Y254000D01*
D02*
G37*
G36*
X197692Y307150D02*
X196639D01*
X195621Y306877D01*
X194709Y306350D01*
X193965Y305606D01*
X193438Y304694D01*
X193165Y303676D01*
Y302623D01*
X193438Y301606D01*
X193635Y301264D01*
Y278835D01*
X193755Y277921D01*
X194108Y277069D01*
X194669Y276338D01*
X217504Y253504D01*
X218235Y252943D01*
X219086Y252590D01*
X220000Y252470D01*
X243249D01*
Y233221D01*
X243370Y232307D01*
X243722Y231455D01*
X244283Y230724D01*
X280507Y194500D01*
X280300Y194000D01*
X279473D01*
X278456Y193727D01*
X277544Y193201D01*
X276799Y192456D01*
X276273Y191544D01*
X276000Y190527D01*
Y189473D01*
X276273Y188456D01*
X276799Y187544D01*
X277544Y186799D01*
X278456Y186273D01*
X279473Y186000D01*
X280527D01*
X281544Y186273D01*
X282456Y186799D01*
X283201Y187544D01*
X283727Y188456D01*
X284000Y189473D01*
Y190300D01*
X284500Y190507D01*
X286171Y188837D01*
X286273Y188456D01*
X286470Y188115D01*
Y57462D01*
X242538Y13530D01*
X146462D01*
X128830Y31163D01*
X128727Y31544D01*
X128201Y32456D01*
X127456Y33201D01*
X126544Y33727D01*
X125527Y34000D01*
X124473D01*
X123456Y33727D01*
X123115Y33530D01*
X101885D01*
X101544Y33727D01*
X100527Y34000D01*
X99473D01*
X98456Y33727D01*
X97544Y33201D01*
X96799Y32456D01*
X96273Y31544D01*
X96171Y31163D01*
X80538Y15530D01*
X44462D01*
X37530Y22462D01*
Y28115D01*
X37727Y28456D01*
X38000Y29473D01*
Y30527D01*
X37727Y31544D01*
X37530Y31885D01*
Y38115D01*
X37727Y38456D01*
X38000Y39473D01*
Y40527D01*
X37727Y41544D01*
X37530Y41886D01*
Y84000D01*
X37410Y84914D01*
X37057Y85765D01*
X36496Y86496D01*
X22829Y100163D01*
X22727Y100544D01*
X22201Y101456D01*
X21456Y102201D01*
X20544Y102727D01*
X19527Y103000D01*
X18473D01*
X17456Y102727D01*
X16544Y102201D01*
X15799Y101456D01*
X15273Y100544D01*
X15000Y99527D01*
Y98473D01*
X15273Y97456D01*
X15799Y96544D01*
X16544Y95799D01*
X17456Y95273D01*
X17837Y95170D01*
X30470Y82538D01*
Y41886D01*
X30273Y41544D01*
X30000Y40527D01*
Y39473D01*
X30273Y38456D01*
X30470Y38115D01*
Y31885D01*
X30273Y31544D01*
X30000Y30527D01*
Y29473D01*
X30273Y28456D01*
X30470Y28115D01*
Y21000D01*
X30590Y20086D01*
X30943Y19235D01*
X31504Y18504D01*
X40504Y9504D01*
X41235Y8943D01*
X42086Y8590D01*
X43000Y8470D01*
X82000D01*
X82914Y8590D01*
X83765Y8943D01*
X84496Y9504D01*
X101163Y26171D01*
X101544Y26273D01*
X101885Y26470D01*
X123115D01*
X123456Y26273D01*
X123837Y26171D01*
X142504Y7504D01*
X143235Y6943D01*
X144086Y6590D01*
X145000Y6470D01*
X244000D01*
X244914Y6590D01*
X245765Y6943D01*
X246496Y7504D01*
X292496Y53504D01*
X293057Y54235D01*
X293410Y55086D01*
X293530Y56000D01*
Y188115D01*
X293727Y188456D01*
X294000Y189473D01*
Y190527D01*
X293727Y191544D01*
X293201Y192456D01*
X292456Y193201D01*
X291544Y193727D01*
X291163Y193830D01*
X250310Y234683D01*
Y254538D01*
X263008Y267236D01*
X263470Y267044D01*
Y251886D01*
X263273Y251544D01*
X263000Y250527D01*
Y249473D01*
X263273Y248456D01*
X263799Y247544D01*
X264544Y246799D01*
X265456Y246273D01*
X266473Y246000D01*
X267527D01*
X268544Y246273D01*
X269456Y246799D01*
X270201Y247544D01*
X270727Y248456D01*
X271000Y249473D01*
Y250527D01*
X270727Y251544D01*
X270530Y251886D01*
Y274758D01*
X277496Y281724D01*
X278057Y282455D01*
X278410Y283307D01*
X278530Y284221D01*
Y298114D01*
X278727Y298456D01*
X279000Y299473D01*
Y300527D01*
X278727Y301544D01*
X278201Y302456D01*
X277456Y303201D01*
X276544Y303727D01*
X275527Y304000D01*
X274473D01*
X273456Y303727D01*
X272544Y303201D01*
X271799Y302456D01*
X271273Y301544D01*
X271000Y300527D01*
Y299473D01*
X271273Y298456D01*
X271470Y298114D01*
Y285683D01*
X265283Y279496D01*
X264504Y278717D01*
X245317Y259530D01*
X221462D01*
X200696Y280297D01*
Y301264D01*
X200893Y301606D01*
X201165Y302623D01*
Y303676D01*
X200893Y304694D01*
X200366Y305606D01*
X199621Y306350D01*
X198709Y306877D01*
X197692Y307150D01*
D02*
G37*
G36*
X48027Y252500D02*
X46973D01*
X45956Y252227D01*
X45044Y251701D01*
X44299Y250956D01*
X43773Y250044D01*
X43500Y249027D01*
Y247973D01*
X43773Y246956D01*
X44299Y246044D01*
X45044Y245299D01*
X45956Y244773D01*
X46973Y244500D01*
X48027D01*
X49044Y244773D01*
X49956Y245299D01*
X50701Y246044D01*
X51227Y246956D01*
X51500Y247973D01*
Y249027D01*
X51227Y250044D01*
X50701Y250956D01*
X49956Y251701D01*
X49044Y252227D01*
X48027Y252500D01*
D02*
G37*
G36*
X41500Y248000D02*
X38000D01*
Y244500D01*
X41500D01*
Y248000D01*
D02*
G37*
G36*
X37000D02*
X33500D01*
Y244500D01*
X37000D01*
Y248000D01*
D02*
G37*
G36*
X31500D02*
X28000D01*
Y244500D01*
X31500D01*
Y248000D01*
D02*
G37*
G36*
X27000D02*
X23500D01*
Y244500D01*
X27000D01*
Y248000D01*
D02*
G37*
G36*
X89232Y245358D02*
X85783D01*
Y241909D01*
X89232D01*
Y245358D01*
D02*
G37*
G36*
X84784D02*
X81335D01*
Y241909D01*
X84784D01*
Y245358D01*
D02*
G37*
G36*
X41500Y242500D02*
X38000D01*
Y239000D01*
X41500D01*
Y242500D01*
D02*
G37*
G36*
X37000D02*
X33500D01*
Y239000D01*
X37000D01*
Y242500D01*
D02*
G37*
G36*
X31500D02*
X28000D01*
Y239000D01*
X31500D01*
Y242500D01*
D02*
G37*
G36*
X27000D02*
X23500D01*
Y239000D01*
X27000D01*
Y242500D01*
D02*
G37*
G36*
X103520Y245358D02*
X102480D01*
X101476Y245089D01*
X100575Y244569D01*
X99840Y243834D01*
X99320Y242934D01*
X99051Y241929D01*
Y240890D01*
X99320Y239885D01*
X99840Y238985D01*
X100575Y238250D01*
X101476Y237730D01*
X102480Y237461D01*
X103520D01*
X104524Y237730D01*
X105425Y238250D01*
X106160Y238985D01*
X106680Y239885D01*
X106949Y240890D01*
Y241929D01*
X106680Y242934D01*
X106160Y243834D01*
X105425Y244569D01*
X104524Y245089D01*
X103520Y245358D01*
D02*
G37*
G36*
X89232Y240909D02*
X85783D01*
Y237461D01*
X89232D01*
Y240909D01*
D02*
G37*
G36*
X84784D02*
X81335D01*
Y237461D01*
X84784D01*
Y240909D01*
D02*
G37*
G36*
X48027Y242500D02*
X46973D01*
X45956Y242227D01*
X45044Y241701D01*
X44299Y240956D01*
X43773Y240044D01*
X43500Y239027D01*
Y237973D01*
X43773Y236956D01*
X44299Y236044D01*
X45044Y235299D01*
X45956Y234773D01*
X46973Y234500D01*
X48027D01*
X49044Y234773D01*
X49956Y235299D01*
X50701Y236044D01*
X51227Y236956D01*
X51500Y237973D01*
Y239027D01*
X51227Y240044D01*
X50701Y240956D01*
X49956Y241701D01*
X49044Y242227D01*
X48027Y242500D01*
D02*
G37*
G36*
X41500Y238000D02*
X38000D01*
Y234500D01*
X41500D01*
Y238000D01*
D02*
G37*
G36*
X37000D02*
X33500D01*
Y234500D01*
X37000D01*
Y238000D01*
D02*
G37*
G36*
X31500D02*
X28000D01*
Y234500D01*
X31500D01*
Y238000D01*
D02*
G37*
G36*
X27000D02*
X23500D01*
Y234500D01*
X27000D01*
Y238000D01*
D02*
G37*
G36*
X41500Y232500D02*
X38000D01*
Y229000D01*
X41500D01*
Y232500D01*
D02*
G37*
G36*
X37000D02*
X33500D01*
Y229000D01*
X37000D01*
Y232500D01*
D02*
G37*
G36*
X31500D02*
X28000D01*
Y229000D01*
X31500D01*
Y232500D01*
D02*
G37*
G36*
X27000D02*
X23500D01*
Y229000D01*
X27000D01*
Y232500D01*
D02*
G37*
G36*
X48027D02*
X46973D01*
X45956Y232227D01*
X45044Y231701D01*
X44299Y230956D01*
X43773Y230044D01*
X43500Y229027D01*
Y227973D01*
X43773Y226956D01*
X44299Y226044D01*
X45044Y225299D01*
X45956Y224773D01*
X46973Y224500D01*
X48027D01*
X49044Y224773D01*
X49956Y225299D01*
X50701Y226044D01*
X51227Y226956D01*
X51500Y227973D01*
Y229027D01*
X51227Y230044D01*
X50701Y230956D01*
X49956Y231701D01*
X49044Y232227D01*
X48027Y232500D01*
D02*
G37*
G36*
X41500Y228000D02*
X38000D01*
Y224500D01*
X41500D01*
Y228000D01*
D02*
G37*
G36*
X37000D02*
X33500D01*
Y224500D01*
X37000D01*
Y228000D01*
D02*
G37*
G36*
X31500D02*
X28000D01*
Y224500D01*
X31500D01*
Y228000D01*
D02*
G37*
G36*
X27000D02*
X23500D01*
Y224500D01*
X27000D01*
Y228000D01*
D02*
G37*
G36*
X41500Y222500D02*
X38000D01*
Y219000D01*
X41500D01*
Y222500D01*
D02*
G37*
G36*
X37000D02*
X33500D01*
Y219000D01*
X37000D01*
Y222500D01*
D02*
G37*
G36*
X31500D02*
X28000D01*
Y219000D01*
X31500D01*
Y222500D01*
D02*
G37*
G36*
X27000D02*
X23500D01*
Y219000D01*
X27000D01*
Y222500D01*
D02*
G37*
G36*
X220527Y224000D02*
X219473D01*
X218456Y223727D01*
X217544Y223201D01*
X216799Y222456D01*
X216273Y221544D01*
X216000Y220527D01*
Y219473D01*
X216273Y218456D01*
X216799Y217544D01*
X217544Y216799D01*
X218456Y216273D01*
X219473Y216000D01*
X220527D01*
X221544Y216273D01*
X222456Y216799D01*
X223201Y217544D01*
X223727Y218456D01*
X224000Y219473D01*
Y220527D01*
X223727Y221544D01*
X223201Y222456D01*
X222456Y223201D01*
X221544Y223727D01*
X220527Y224000D01*
D02*
G37*
G36*
X195527D02*
X194473D01*
X193456Y223727D01*
X192544Y223201D01*
X191799Y222456D01*
X191273Y221544D01*
X191000Y220527D01*
Y219473D01*
X191273Y218456D01*
X191799Y217544D01*
X192544Y216799D01*
X193456Y216273D01*
X194473Y216000D01*
X195527D01*
X196544Y216273D01*
X197456Y216799D01*
X198201Y217544D01*
X198727Y218456D01*
X199000Y219473D01*
Y220527D01*
X198727Y221544D01*
X198201Y222456D01*
X197456Y223201D01*
X196544Y223727D01*
X195527Y224000D01*
D02*
G37*
G36*
X125527D02*
X124473D01*
X123456Y223727D01*
X122544Y223201D01*
X121799Y222456D01*
X121273Y221544D01*
X121000Y220527D01*
Y219473D01*
X121273Y218456D01*
X121799Y217544D01*
X122544Y216799D01*
X123456Y216273D01*
X124473Y216000D01*
X125527D01*
X126544Y216273D01*
X127456Y216799D01*
X128201Y217544D01*
X128727Y218456D01*
X129000Y219473D01*
Y220527D01*
X128727Y221544D01*
X128201Y222456D01*
X127456Y223201D01*
X126544Y223727D01*
X125527Y224000D01*
D02*
G37*
G36*
X100527D02*
X99473D01*
X98456Y223727D01*
X97544Y223201D01*
X96799Y222456D01*
X96273Y221544D01*
X96000Y220527D01*
Y219473D01*
X96273Y218456D01*
X96799Y217544D01*
X97544Y216799D01*
X98456Y216273D01*
X99473Y216000D01*
X100527D01*
X101544Y216273D01*
X102456Y216799D01*
X103201Y217544D01*
X103727Y218456D01*
X104000Y219473D01*
Y220527D01*
X103727Y221544D01*
X103201Y222456D01*
X102456Y223201D01*
X101544Y223727D01*
X100527Y224000D01*
D02*
G37*
G36*
X48027Y222500D02*
X46973D01*
X45956Y222227D01*
X45044Y221701D01*
X44299Y220956D01*
X43773Y220044D01*
X43500Y219027D01*
Y217973D01*
X43773Y216956D01*
X44299Y216044D01*
X45044Y215299D01*
X45956Y214773D01*
X46973Y214500D01*
X48027D01*
X49044Y214773D01*
X49956Y215299D01*
X50701Y216044D01*
X51227Y216956D01*
X51500Y217973D01*
Y219027D01*
X51227Y220044D01*
X50701Y220956D01*
X49956Y221701D01*
X49044Y222227D01*
X48027Y222500D01*
D02*
G37*
G36*
X41500Y218000D02*
X38000D01*
Y214500D01*
X41500D01*
Y218000D01*
D02*
G37*
G36*
X37000D02*
X33500D01*
Y214500D01*
X37000D01*
Y218000D01*
D02*
G37*
G36*
X31500D02*
X28000D01*
Y214500D01*
X31500D01*
Y218000D01*
D02*
G37*
G36*
X27000D02*
X23500D01*
Y214500D01*
X27000D01*
Y218000D01*
D02*
G37*
G36*
X41500Y212500D02*
X38000D01*
Y209000D01*
X41500D01*
Y212500D01*
D02*
G37*
G36*
X37000D02*
X33500D01*
Y209000D01*
X37000D01*
Y212500D01*
D02*
G37*
G36*
X31500D02*
X28000D01*
Y209000D01*
X31500D01*
Y212500D01*
D02*
G37*
G36*
X27000D02*
X23500D01*
Y209000D01*
X27000D01*
Y212500D01*
D02*
G37*
G36*
X220527Y214000D02*
X219473D01*
X218456Y213727D01*
X217544Y213201D01*
X216799Y212456D01*
X216273Y211544D01*
X216000Y210527D01*
Y209473D01*
X216273Y208456D01*
X216799Y207544D01*
X217544Y206799D01*
X218456Y206273D01*
X219473Y206000D01*
X220527D01*
X221544Y206273D01*
X222456Y206799D01*
X223201Y207544D01*
X223727Y208456D01*
X224000Y209473D01*
Y210527D01*
X223727Y211544D01*
X223201Y212456D01*
X222456Y213201D01*
X221544Y213727D01*
X220527Y214000D01*
D02*
G37*
G36*
X195527D02*
X194473D01*
X193456Y213727D01*
X192544Y213201D01*
X191799Y212456D01*
X191273Y211544D01*
X191000Y210527D01*
Y209473D01*
X191273Y208456D01*
X191799Y207544D01*
X192544Y206799D01*
X193456Y206273D01*
X194473Y206000D01*
X195527D01*
X196544Y206273D01*
X197456Y206799D01*
X198201Y207544D01*
X198727Y208456D01*
X199000Y209473D01*
Y210527D01*
X198727Y211544D01*
X198201Y212456D01*
X197456Y213201D01*
X196544Y213727D01*
X195527Y214000D01*
D02*
G37*
G36*
X125527D02*
X124473D01*
X123456Y213727D01*
X122544Y213201D01*
X121799Y212456D01*
X121273Y211544D01*
X121000Y210527D01*
Y209473D01*
X121273Y208456D01*
X121799Y207544D01*
X122544Y206799D01*
X123456Y206273D01*
X124473Y206000D01*
X125527D01*
X126544Y206273D01*
X127456Y206799D01*
X128201Y207544D01*
X128727Y208456D01*
X129000Y209473D01*
Y210527D01*
X128727Y211544D01*
X128201Y212456D01*
X127456Y213201D01*
X126544Y213727D01*
X125527Y214000D01*
D02*
G37*
G36*
X100527D02*
X99473D01*
X98456Y213727D01*
X97544Y213201D01*
X96799Y212456D01*
X96273Y211544D01*
X96000Y210527D01*
Y209473D01*
X96273Y208456D01*
X96799Y207544D01*
X97544Y206799D01*
X98456Y206273D01*
X99473Y206000D01*
X100527D01*
X101544Y206273D01*
X102456Y206799D01*
X103201Y207544D01*
X103727Y208456D01*
X104000Y209473D01*
Y210527D01*
X103727Y211544D01*
X103201Y212456D01*
X102456Y213201D01*
X101544Y213727D01*
X100527Y214000D01*
D02*
G37*
G36*
X48027Y212500D02*
X46973D01*
X45956Y212227D01*
X45044Y211701D01*
X44299Y210956D01*
X43773Y210044D01*
X43500Y209027D01*
Y207973D01*
X43773Y206956D01*
X44299Y206044D01*
X45044Y205299D01*
X45956Y204773D01*
X46973Y204500D01*
X48027D01*
X49044Y204773D01*
X49956Y205299D01*
X50701Y206044D01*
X51227Y206956D01*
X51500Y207973D01*
Y209027D01*
X51227Y210044D01*
X50701Y210956D01*
X49956Y211701D01*
X49044Y212227D01*
X48027Y212500D01*
D02*
G37*
G36*
X41500Y208000D02*
X38000D01*
Y204500D01*
X41500D01*
Y208000D01*
D02*
G37*
G36*
X37000D02*
X33500D01*
Y204500D01*
X37000D01*
Y208000D01*
D02*
G37*
G36*
X31500D02*
X28000D01*
Y204500D01*
X31500D01*
Y208000D01*
D02*
G37*
G36*
X27000D02*
X23500D01*
Y204500D01*
X27000D01*
Y208000D01*
D02*
G37*
G36*
X199000Y204000D02*
X195500D01*
Y200500D01*
X199000D01*
Y204000D01*
D02*
G37*
G36*
X224000D02*
X220500D01*
Y200500D01*
X224000D01*
Y204000D01*
D02*
G37*
G36*
X129000D02*
X125500D01*
Y200500D01*
X129000D01*
Y204000D01*
D02*
G37*
G36*
X104000D02*
X100500D01*
Y200500D01*
X104000D01*
Y204000D01*
D02*
G37*
G36*
X194500D02*
X191000D01*
Y200500D01*
X194500D01*
Y204000D01*
D02*
G37*
G36*
X219500D02*
X216000D01*
Y200500D01*
X219500D01*
Y204000D01*
D02*
G37*
G36*
X99500D02*
X96000D01*
Y200500D01*
X99500D01*
Y204000D01*
D02*
G37*
G36*
X124500D02*
X121000D01*
Y200500D01*
X124500D01*
Y204000D01*
D02*
G37*
G36*
X41500Y202500D02*
X38000D01*
Y199000D01*
X41500D01*
Y202500D01*
D02*
G37*
G36*
X37000D02*
X33500D01*
Y199000D01*
X37000D01*
Y202500D01*
D02*
G37*
G36*
X31500D02*
X28000D01*
Y199000D01*
X31500D01*
Y202500D01*
D02*
G37*
G36*
X27000D02*
X23500D01*
Y199000D01*
X27000D01*
Y202500D01*
D02*
G37*
G36*
X224000Y199500D02*
X220500D01*
Y196000D01*
X224000D01*
Y199500D01*
D02*
G37*
G36*
X219500D02*
X216000D01*
Y196000D01*
X219500D01*
Y199500D01*
D02*
G37*
G36*
X199000D02*
X195500D01*
Y196000D01*
X199000D01*
Y199500D01*
D02*
G37*
G36*
X194500D02*
X191000D01*
Y196000D01*
X194500D01*
Y199500D01*
D02*
G37*
G36*
X129000D02*
X125500D01*
Y196000D01*
X129000D01*
Y199500D01*
D02*
G37*
G36*
X124500D02*
X121000D01*
Y196000D01*
X124500D01*
Y199500D01*
D02*
G37*
G36*
X104000D02*
X100500D01*
Y196000D01*
X104000D01*
Y199500D01*
D02*
G37*
G36*
X99500D02*
X96000D01*
Y196000D01*
X99500D01*
Y199500D01*
D02*
G37*
G36*
X48027Y202500D02*
X46973D01*
X45956Y202227D01*
X45044Y201701D01*
X44299Y200956D01*
X43773Y200044D01*
X43500Y199027D01*
Y197973D01*
X43773Y196956D01*
X44299Y196044D01*
X45044Y195299D01*
X45956Y194773D01*
X46973Y194500D01*
X48027D01*
X49044Y194773D01*
X49956Y195299D01*
X50701Y196044D01*
X51227Y196956D01*
X51500Y197973D01*
Y199027D01*
X51227Y200044D01*
X50701Y200956D01*
X49956Y201701D01*
X49044Y202227D01*
X48027Y202500D01*
D02*
G37*
G36*
X41500Y198000D02*
X38000D01*
Y194500D01*
X41500D01*
Y198000D01*
D02*
G37*
G36*
X37000D02*
X33500D01*
Y194500D01*
X37000D01*
Y198000D01*
D02*
G37*
G36*
X31500D02*
X28000D01*
Y194500D01*
X31500D01*
Y198000D01*
D02*
G37*
G36*
X27000D02*
X23500D01*
Y194500D01*
X27000D01*
Y198000D01*
D02*
G37*
G36*
X264000Y194000D02*
X260500D01*
Y190500D01*
X264000D01*
Y194000D01*
D02*
G37*
G36*
X259500D02*
X256000D01*
Y190500D01*
X259500D01*
Y194000D01*
D02*
G37*
G36*
X41500Y192500D02*
X38000D01*
Y189000D01*
X41500D01*
Y192500D01*
D02*
G37*
G36*
X37000D02*
X33500D01*
Y189000D01*
X37000D01*
Y192500D01*
D02*
G37*
G36*
X31500D02*
X28000D01*
Y189000D01*
X31500D01*
Y192500D01*
D02*
G37*
G36*
X27000D02*
X23500D01*
Y189000D01*
X27000D01*
Y192500D01*
D02*
G37*
G36*
X270527Y194000D02*
X269473D01*
X268456Y193727D01*
X267544Y193201D01*
X266799Y192456D01*
X266273Y191544D01*
X266000Y190527D01*
Y189473D01*
X266273Y188456D01*
X266799Y187544D01*
X267544Y186799D01*
X268456Y186273D01*
X269473Y186000D01*
X270527D01*
X271544Y186273D01*
X272456Y186799D01*
X273201Y187544D01*
X273727Y188456D01*
X274000Y189473D01*
Y190527D01*
X273727Y191544D01*
X273201Y192456D01*
X272456Y193201D01*
X271544Y193727D01*
X270527Y194000D01*
D02*
G37*
G36*
X264000Y189500D02*
X260500D01*
Y186000D01*
X264000D01*
Y189500D01*
D02*
G37*
G36*
X259500D02*
X256000D01*
Y186000D01*
X259500D01*
Y189500D01*
D02*
G37*
G36*
X220527Y194000D02*
X219473D01*
X218456Y193727D01*
X217544Y193201D01*
X216799Y192456D01*
X216273Y191544D01*
X216000Y190527D01*
Y189473D01*
X216273Y188456D01*
X216799Y187544D01*
X217544Y186799D01*
X218456Y186273D01*
X219473Y186000D01*
X220527D01*
X221544Y186273D01*
X222456Y186799D01*
X223201Y187544D01*
X223727Y188456D01*
X224000Y189473D01*
Y190527D01*
X223727Y191544D01*
X223201Y192456D01*
X222456Y193201D01*
X221544Y193727D01*
X220527Y194000D01*
D02*
G37*
G36*
X195527D02*
X194473D01*
X193456Y193727D01*
X192544Y193201D01*
X191799Y192456D01*
X191273Y191544D01*
X191000Y190527D01*
Y189473D01*
X191273Y188456D01*
X191799Y187544D01*
X192544Y186799D01*
X193456Y186273D01*
X194473Y186000D01*
X195527D01*
X196544Y186273D01*
X197456Y186799D01*
X198201Y187544D01*
X198727Y188456D01*
X199000Y189473D01*
Y190527D01*
X198727Y191544D01*
X198201Y192456D01*
X197456Y193201D01*
X196544Y193727D01*
X195527Y194000D01*
D02*
G37*
G36*
X125527D02*
X124473D01*
X123456Y193727D01*
X122544Y193201D01*
X121799Y192456D01*
X121273Y191544D01*
X121000Y190527D01*
Y189473D01*
X121273Y188456D01*
X121799Y187544D01*
X122544Y186799D01*
X123456Y186273D01*
X124473Y186000D01*
X125527D01*
X126544Y186273D01*
X127456Y186799D01*
X128201Y187544D01*
X128727Y188456D01*
X129000Y189473D01*
Y190527D01*
X128727Y191544D01*
X128201Y192456D01*
X127456Y193201D01*
X126544Y193727D01*
X125527Y194000D01*
D02*
G37*
G36*
X100527D02*
X99473D01*
X98456Y193727D01*
X97544Y193201D01*
X96799Y192456D01*
X96273Y191544D01*
X96000Y190527D01*
Y189473D01*
X96273Y188456D01*
X96799Y187544D01*
X97544Y186799D01*
X98456Y186273D01*
X99473Y186000D01*
X100527D01*
X101544Y186273D01*
X102456Y186799D01*
X103201Y187544D01*
X103727Y188456D01*
X104000Y189473D01*
Y190527D01*
X103727Y191544D01*
X103201Y192456D01*
X102456Y193201D01*
X101544Y193727D01*
X100527Y194000D01*
D02*
G37*
G36*
X48027Y192500D02*
X46973D01*
X45956Y192227D01*
X45044Y191701D01*
X44299Y190956D01*
X43773Y190044D01*
X43500Y189027D01*
Y187973D01*
X43773Y186956D01*
X44299Y186044D01*
X45044Y185299D01*
X45956Y184773D01*
X46973Y184500D01*
X48027D01*
X49044Y184773D01*
X49956Y185299D01*
X50701Y186044D01*
X51227Y186956D01*
X51500Y187973D01*
Y189027D01*
X51227Y190044D01*
X50701Y190956D01*
X49956Y191701D01*
X49044Y192227D01*
X48027Y192500D01*
D02*
G37*
G36*
X41500Y188000D02*
X38000D01*
Y184500D01*
X41500D01*
Y188000D01*
D02*
G37*
G36*
X37000D02*
X33500D01*
Y184500D01*
X37000D01*
Y188000D01*
D02*
G37*
G36*
X31500D02*
X28000D01*
Y184500D01*
X31500D01*
Y188000D01*
D02*
G37*
G36*
X27000D02*
X23500D01*
Y184500D01*
X27000D01*
Y188000D01*
D02*
G37*
G36*
X27500Y180417D02*
X27150Y180272D01*
X27000Y180121D01*
X26850Y180272D01*
X26500Y180417D01*
Y179000D01*
X26000D01*
Y178500D01*
X24584D01*
X24728Y178150D01*
X24879Y178000D01*
X24728Y177850D01*
X24584Y177500D01*
X26000D01*
Y177000D01*
X26500D01*
Y175584D01*
X26850Y175728D01*
X27000Y175879D01*
X27150Y175728D01*
X27500Y175584D01*
Y177000D01*
X28000D01*
Y177500D01*
X29416D01*
X29272Y177850D01*
X29121Y178000D01*
X29272Y178150D01*
X29416Y178500D01*
X28000D01*
Y179000D01*
X27500D01*
Y180417D01*
D02*
G37*
G36*
X28500D02*
Y179500D01*
X29416D01*
X29272Y179850D01*
X28850Y180272D01*
X28500Y180417D01*
D02*
G37*
G36*
X25500D02*
X25150Y180272D01*
X24728Y179850D01*
X24584Y179500D01*
X25500D01*
Y180417D01*
D02*
G37*
G36*
X220527Y184000D02*
X219473D01*
X218456Y183727D01*
X217544Y183201D01*
X216799Y182456D01*
X216273Y181544D01*
X216000Y180527D01*
Y179473D01*
X216273Y178456D01*
X216799Y177544D01*
X217544Y176799D01*
X218456Y176273D01*
X219473Y176000D01*
X220527D01*
X221544Y176273D01*
X222456Y176799D01*
X223201Y177544D01*
X223727Y178456D01*
X224000Y179473D01*
Y180527D01*
X223727Y181544D01*
X223201Y182456D01*
X222456Y183201D01*
X221544Y183727D01*
X220527Y184000D01*
D02*
G37*
G36*
X195527D02*
X194473D01*
X193456Y183727D01*
X192544Y183201D01*
X191799Y182456D01*
X191273Y181544D01*
X191000Y180527D01*
Y179473D01*
X191273Y178456D01*
X191799Y177544D01*
X192544Y176799D01*
X193456Y176273D01*
X194473Y176000D01*
X195527D01*
X196544Y176273D01*
X197456Y176799D01*
X198201Y177544D01*
X198727Y178456D01*
X199000Y179473D01*
Y180527D01*
X198727Y181544D01*
X198201Y182456D01*
X197456Y183201D01*
X196544Y183727D01*
X195527Y184000D01*
D02*
G37*
G36*
X125527D02*
X124473D01*
X123456Y183727D01*
X122544Y183201D01*
X121799Y182456D01*
X121273Y181544D01*
X121000Y180527D01*
Y179473D01*
X121273Y178456D01*
X121799Y177544D01*
X122544Y176799D01*
X123456Y176273D01*
X124473Y176000D01*
X125527D01*
X126544Y176273D01*
X127456Y176799D01*
X128201Y177544D01*
X128727Y178456D01*
X129000Y179473D01*
Y180527D01*
X128727Y181544D01*
X128201Y182456D01*
X127456Y183201D01*
X126544Y183727D01*
X125527Y184000D01*
D02*
G37*
G36*
X100527D02*
X99473D01*
X98456Y183727D01*
X97544Y183201D01*
X96799Y182456D01*
X96273Y181544D01*
X96000Y180527D01*
Y179473D01*
X96273Y178456D01*
X96799Y177544D01*
X97544Y176799D01*
X98456Y176273D01*
X99473Y176000D01*
X100527D01*
X101544Y176273D01*
X102456Y176799D01*
X103201Y177544D01*
X103727Y178456D01*
X104000Y179473D01*
Y180527D01*
X103727Y181544D01*
X103201Y182456D01*
X102456Y183201D01*
X101544Y183727D01*
X100527Y184000D01*
D02*
G37*
G36*
X29416Y176500D02*
X28500D01*
Y175584D01*
X28850Y175728D01*
X29272Y176150D01*
X29416Y176500D01*
D02*
G37*
G36*
X25500D02*
X24584D01*
X24728Y176150D01*
X25150Y175728D01*
X25500Y175584D01*
Y176500D01*
D02*
G37*
G36*
X53000Y173000D02*
X49500D01*
Y169500D01*
X53000D01*
Y173000D01*
D02*
G37*
G36*
X48500D02*
X45000D01*
Y169500D01*
X48500D01*
Y173000D01*
D02*
G37*
G36*
X220527Y174000D02*
X219473D01*
X218456Y173727D01*
X217544Y173201D01*
X216799Y172456D01*
X216273Y171544D01*
X216000Y170527D01*
Y169473D01*
X216273Y168456D01*
X216799Y167544D01*
X217544Y166799D01*
X218456Y166273D01*
X219473Y166000D01*
X220527D01*
X221544Y166273D01*
X222456Y166799D01*
X223201Y167544D01*
X223727Y168456D01*
X224000Y169473D01*
Y170527D01*
X223727Y171544D01*
X223201Y172456D01*
X222456Y173201D01*
X221544Y173727D01*
X220527Y174000D01*
D02*
G37*
G36*
X195527D02*
X194473D01*
X193456Y173727D01*
X192544Y173201D01*
X191799Y172456D01*
X191273Y171544D01*
X191000Y170527D01*
Y169473D01*
X191273Y168456D01*
X191799Y167544D01*
X192544Y166799D01*
X193456Y166273D01*
X194473Y166000D01*
X195527D01*
X196544Y166273D01*
X197456Y166799D01*
X198201Y167544D01*
X198727Y168456D01*
X199000Y169473D01*
Y170527D01*
X198727Y171544D01*
X198201Y172456D01*
X197456Y173201D01*
X196544Y173727D01*
X195527Y174000D01*
D02*
G37*
G36*
X125527D02*
X124473D01*
X123456Y173727D01*
X122544Y173201D01*
X121799Y172456D01*
X121273Y171544D01*
X121000Y170527D01*
Y169473D01*
X121273Y168456D01*
X121799Y167544D01*
X122544Y166799D01*
X123456Y166273D01*
X124473Y166000D01*
X125527D01*
X126544Y166273D01*
X127456Y166799D01*
X128201Y167544D01*
X128727Y168456D01*
X129000Y169473D01*
Y170527D01*
X128727Y171544D01*
X128201Y172456D01*
X127456Y173201D01*
X126544Y173727D01*
X125527Y174000D01*
D02*
G37*
G36*
X100527D02*
X99473D01*
X98456Y173727D01*
X97544Y173201D01*
X96799Y172456D01*
X96273Y171544D01*
X96000Y170527D01*
Y169473D01*
X96273Y168456D01*
X96799Y167544D01*
X97544Y166799D01*
X98456Y166273D01*
X99473Y166000D01*
X100527D01*
X101544Y166273D01*
X102456Y166799D01*
X103201Y167544D01*
X103727Y168456D01*
X104000Y169473D01*
Y170527D01*
X103727Y171544D01*
X103201Y172456D01*
X102456Y173201D01*
X101544Y173727D01*
X100527Y174000D01*
D02*
G37*
G36*
X53000Y168500D02*
X49500D01*
Y165000D01*
X53000D01*
Y168500D01*
D02*
G37*
G36*
X48500D02*
X45000D01*
Y165000D01*
X48500D01*
Y168500D01*
D02*
G37*
G36*
X19527Y173000D02*
X18473D01*
X17456Y172727D01*
X16544Y172201D01*
X15799Y171456D01*
X15273Y170544D01*
X15000Y169527D01*
Y168473D01*
X15273Y167456D01*
X15799Y166544D01*
X16544Y165799D01*
X17456Y165273D01*
X18473Y165000D01*
X19527D01*
X20544Y165273D01*
X21456Y165799D01*
X22201Y166544D01*
X22727Y167456D01*
X23000Y168473D01*
Y169527D01*
X22727Y170544D01*
X22201Y171456D01*
X21456Y172201D01*
X20544Y172727D01*
X19527Y173000D01*
D02*
G37*
G36*
X220527Y164000D02*
X219473D01*
X218456Y163727D01*
X217544Y163201D01*
X216799Y162456D01*
X216273Y161544D01*
X216000Y160527D01*
Y159473D01*
X216273Y158456D01*
X216799Y157544D01*
X217544Y156799D01*
X218456Y156273D01*
X219473Y156000D01*
X220527D01*
X221544Y156273D01*
X222456Y156799D01*
X223201Y157544D01*
X223727Y158456D01*
X224000Y159473D01*
Y160527D01*
X223727Y161544D01*
X223201Y162456D01*
X222456Y163201D01*
X221544Y163727D01*
X220527Y164000D01*
D02*
G37*
G36*
X195527D02*
X194473D01*
X193456Y163727D01*
X192544Y163201D01*
X191799Y162456D01*
X191273Y161544D01*
X191000Y160527D01*
Y159473D01*
X191273Y158456D01*
X191799Y157544D01*
X192544Y156799D01*
X193456Y156273D01*
X194473Y156000D01*
X195527D01*
X196544Y156273D01*
X197456Y156799D01*
X198201Y157544D01*
X198727Y158456D01*
X199000Y159473D01*
Y160527D01*
X198727Y161544D01*
X198201Y162456D01*
X197456Y163201D01*
X196544Y163727D01*
X195527Y164000D01*
D02*
G37*
G36*
X125527D02*
X124473D01*
X123456Y163727D01*
X122544Y163201D01*
X121799Y162456D01*
X121273Y161544D01*
X121000Y160527D01*
Y159473D01*
X121273Y158456D01*
X121799Y157544D01*
X122544Y156799D01*
X123456Y156273D01*
X124473Y156000D01*
X125527D01*
X126544Y156273D01*
X127456Y156799D01*
X128201Y157544D01*
X128727Y158456D01*
X129000Y159473D01*
Y160527D01*
X128727Y161544D01*
X128201Y162456D01*
X127456Y163201D01*
X126544Y163727D01*
X125527Y164000D01*
D02*
G37*
G36*
X100527D02*
X99473D01*
X98456Y163727D01*
X97544Y163201D01*
X96799Y162456D01*
X96273Y161544D01*
X96000Y160527D01*
Y159473D01*
X96273Y158456D01*
X96799Y157544D01*
X97544Y156799D01*
X98456Y156273D01*
X99473Y156000D01*
X100527D01*
X101544Y156273D01*
X102456Y156799D01*
X103201Y157544D01*
X103727Y158456D01*
X104000Y159473D01*
Y160527D01*
X103727Y161544D01*
X103201Y162456D01*
X102456Y163201D01*
X101544Y163727D01*
X100527Y164000D01*
D02*
G37*
G36*
X49527Y163000D02*
X48473D01*
X47456Y162727D01*
X46544Y162201D01*
X45799Y161456D01*
X45273Y160544D01*
X45000Y159527D01*
Y158473D01*
X45273Y157456D01*
X45799Y156544D01*
X46544Y155799D01*
X47456Y155273D01*
X48473Y155000D01*
X49527D01*
X50544Y155273D01*
X51456Y155799D01*
X52201Y156544D01*
X52727Y157456D01*
X53000Y158473D01*
Y159527D01*
X52727Y160544D01*
X52201Y161456D01*
X51456Y162201D01*
X50544Y162727D01*
X49527Y163000D01*
D02*
G37*
G36*
X19527D02*
X18473D01*
X17456Y162727D01*
X16544Y162201D01*
X15799Y161456D01*
X15273Y160544D01*
X15000Y159527D01*
Y158473D01*
X15273Y157456D01*
X15799Y156544D01*
X16544Y155799D01*
X17456Y155273D01*
X18473Y155000D01*
X19527D01*
X20544Y155273D01*
X21456Y155799D01*
X22201Y156544D01*
X22727Y157456D01*
X23000Y158473D01*
Y159527D01*
X22727Y160544D01*
X22201Y161456D01*
X21456Y162201D01*
X20544Y162727D01*
X19527Y163000D01*
D02*
G37*
G36*
X224000Y154000D02*
X220500D01*
Y150500D01*
X224000D01*
Y154000D01*
D02*
G37*
G36*
X199000D02*
X195500D01*
Y150500D01*
X199000D01*
Y154000D01*
D02*
G37*
G36*
X129000D02*
X125500D01*
Y150500D01*
X129000D01*
Y154000D01*
D02*
G37*
G36*
X104000D02*
X100500D01*
Y150500D01*
X104000D01*
Y154000D01*
D02*
G37*
G36*
X219500D02*
X216000D01*
Y150500D01*
X219500D01*
Y154000D01*
D02*
G37*
G36*
X194500D02*
X191000D01*
Y150500D01*
X194500D01*
Y154000D01*
D02*
G37*
G36*
X124500D02*
X121000D01*
Y150500D01*
X124500D01*
Y154000D01*
D02*
G37*
G36*
X99500D02*
X96000D01*
Y150500D01*
X99500D01*
Y154000D01*
D02*
G37*
G36*
X281500Y150417D02*
X281150Y150272D01*
X281000Y150121D01*
X280850Y150272D01*
X280500Y150417D01*
Y149000D01*
X280000D01*
Y148500D01*
X278584D01*
X278728Y148150D01*
X278879Y148000D01*
X278728Y147850D01*
X278584Y147500D01*
X280000D01*
Y147000D01*
X280500D01*
Y145583D01*
X280850Y145728D01*
X281000Y145879D01*
X281150Y145728D01*
X281500Y145583D01*
Y147000D01*
X282000D01*
Y147500D01*
X283417D01*
X283272Y147850D01*
X283121Y148000D01*
X283272Y148150D01*
X283417Y148500D01*
X282000D01*
Y149000D01*
X281500D01*
Y150417D01*
D02*
G37*
G36*
X282500D02*
Y149500D01*
X283417D01*
X283272Y149850D01*
X282850Y150272D01*
X282500Y150417D01*
D02*
G37*
G36*
X279500D02*
X279150Y150272D01*
X278728Y149850D01*
X278584Y149500D01*
X279500D01*
Y150417D01*
D02*
G37*
G36*
X224000Y149500D02*
X220500D01*
Y146000D01*
X224000D01*
Y149500D01*
D02*
G37*
G36*
X219500D02*
X216000D01*
Y146000D01*
X219500D01*
Y149500D01*
D02*
G37*
G36*
X199000D02*
X195500D01*
Y146000D01*
X199000D01*
Y149500D01*
D02*
G37*
G36*
X194500D02*
X191000D01*
Y146000D01*
X194500D01*
Y149500D01*
D02*
G37*
G36*
X129000D02*
X125500D01*
Y146000D01*
X129000D01*
Y149500D01*
D02*
G37*
G36*
X124500D02*
X121000D01*
Y146000D01*
X124500D01*
Y149500D01*
D02*
G37*
G36*
X104000D02*
X100500D01*
Y146000D01*
X104000D01*
Y149500D01*
D02*
G37*
G36*
X99500D02*
X96000D01*
Y146000D01*
X99500D01*
Y149500D01*
D02*
G37*
G36*
X283417Y146500D02*
X282500D01*
Y145583D01*
X282850Y145728D01*
X283272Y146150D01*
X283417Y146500D01*
D02*
G37*
G36*
X279500D02*
X278584D01*
X278728Y146150D01*
X279150Y145728D01*
X279500Y145583D01*
Y146500D01*
D02*
G37*
G36*
X49527Y153000D02*
X48473D01*
X47456Y152727D01*
X46544Y152201D01*
X45799Y151456D01*
X45273Y150544D01*
X45000Y149527D01*
Y148473D01*
X45273Y147456D01*
X45799Y146544D01*
X46544Y145799D01*
X47456Y145273D01*
X48473Y145000D01*
X49527D01*
X50544Y145273D01*
X51456Y145799D01*
X52201Y146544D01*
X52727Y147456D01*
X53000Y148473D01*
Y149527D01*
X52727Y150544D01*
X52201Y151456D01*
X51456Y152201D01*
X50544Y152727D01*
X49527Y153000D01*
D02*
G37*
G36*
X19527D02*
X18473D01*
X17456Y152727D01*
X16544Y152201D01*
X15799Y151456D01*
X15273Y150544D01*
X15000Y149527D01*
Y148473D01*
X15273Y147456D01*
X15799Y146544D01*
X16544Y145799D01*
X17456Y145273D01*
X18473Y145000D01*
X19527D01*
X20544Y145273D01*
X21456Y145799D01*
X22201Y146544D01*
X22727Y147456D01*
X23000Y148473D01*
Y149527D01*
X22727Y150544D01*
X22201Y151456D01*
X21456Y152201D01*
X20544Y152727D01*
X19527Y153000D01*
D02*
G37*
G36*
X220527Y144000D02*
X219473D01*
X218456Y143727D01*
X217544Y143201D01*
X216799Y142456D01*
X216273Y141544D01*
X216000Y140527D01*
Y139473D01*
X216273Y138456D01*
X216799Y137544D01*
X217544Y136799D01*
X218456Y136273D01*
X219473Y136000D01*
X220527D01*
X221544Y136273D01*
X222456Y136799D01*
X223201Y137544D01*
X223727Y138456D01*
X224000Y139473D01*
Y140527D01*
X223727Y141544D01*
X223201Y142456D01*
X222456Y143201D01*
X221544Y143727D01*
X220527Y144000D01*
D02*
G37*
G36*
X195527D02*
X194473D01*
X193456Y143727D01*
X192544Y143201D01*
X191799Y142456D01*
X191273Y141544D01*
X191000Y140527D01*
Y139473D01*
X191273Y138456D01*
X191799Y137544D01*
X192544Y136799D01*
X193456Y136273D01*
X194473Y136000D01*
X195527D01*
X196544Y136273D01*
X197456Y136799D01*
X198201Y137544D01*
X198727Y138456D01*
X199000Y139473D01*
Y140527D01*
X198727Y141544D01*
X198201Y142456D01*
X197456Y143201D01*
X196544Y143727D01*
X195527Y144000D01*
D02*
G37*
G36*
X125527D02*
X124473D01*
X123456Y143727D01*
X122544Y143201D01*
X121799Y142456D01*
X121273Y141544D01*
X121000Y140527D01*
Y139473D01*
X121273Y138456D01*
X121799Y137544D01*
X122544Y136799D01*
X123456Y136273D01*
X124473Y136000D01*
X125527D01*
X126544Y136273D01*
X127456Y136799D01*
X128201Y137544D01*
X128727Y138456D01*
X129000Y139473D01*
Y140527D01*
X128727Y141544D01*
X128201Y142456D01*
X127456Y143201D01*
X126544Y143727D01*
X125527Y144000D01*
D02*
G37*
G36*
X100527D02*
X99473D01*
X98456Y143727D01*
X97544Y143201D01*
X96799Y142456D01*
X96273Y141544D01*
X96000Y140527D01*
Y139473D01*
X96273Y138456D01*
X96799Y137544D01*
X97544Y136799D01*
X98456Y136273D01*
X99473Y136000D01*
X100527D01*
X101544Y136273D01*
X102456Y136799D01*
X103201Y137544D01*
X103727Y138456D01*
X104000Y139473D01*
Y140527D01*
X103727Y141544D01*
X103201Y142456D01*
X102456Y143201D01*
X101544Y143727D01*
X100527Y144000D01*
D02*
G37*
G36*
X49527Y143000D02*
X48473D01*
X47456Y142727D01*
X46544Y142201D01*
X45799Y141456D01*
X45273Y140544D01*
X45000Y139527D01*
Y138473D01*
X45273Y137456D01*
X45799Y136544D01*
X46544Y135799D01*
X47456Y135273D01*
X48473Y135000D01*
X49527D01*
X50544Y135273D01*
X51456Y135799D01*
X52201Y136544D01*
X52727Y137456D01*
X53000Y138473D01*
Y139527D01*
X52727Y140544D01*
X52201Y141456D01*
X51456Y142201D01*
X50544Y142727D01*
X49527Y143000D01*
D02*
G37*
G36*
X19527D02*
X18473D01*
X17456Y142727D01*
X16544Y142201D01*
X15799Y141456D01*
X15273Y140544D01*
X15000Y139527D01*
Y138473D01*
X15273Y137456D01*
X15799Y136544D01*
X16544Y135799D01*
X17456Y135273D01*
X18473Y135000D01*
X19527D01*
X20544Y135273D01*
X21456Y135799D01*
X22201Y136544D01*
X22727Y137456D01*
X23000Y138473D01*
Y139527D01*
X22727Y140544D01*
X22201Y141456D01*
X21456Y142201D01*
X20544Y142727D01*
X19527Y143000D01*
D02*
G37*
G36*
X220527Y134000D02*
X219473D01*
X218456Y133727D01*
X217544Y133201D01*
X216799Y132456D01*
X216273Y131544D01*
X216000Y130527D01*
Y129473D01*
X216273Y128456D01*
X216799Y127544D01*
X217544Y126799D01*
X218456Y126273D01*
X219473Y126000D01*
X220527D01*
X221544Y126273D01*
X222456Y126799D01*
X223201Y127544D01*
X223727Y128456D01*
X224000Y129473D01*
Y130527D01*
X223727Y131544D01*
X223201Y132456D01*
X222456Y133201D01*
X221544Y133727D01*
X220527Y134000D01*
D02*
G37*
G36*
X195527D02*
X194473D01*
X193456Y133727D01*
X192544Y133201D01*
X191799Y132456D01*
X191273Y131544D01*
X191000Y130527D01*
Y129473D01*
X191273Y128456D01*
X191799Y127544D01*
X192544Y126799D01*
X193456Y126273D01*
X194473Y126000D01*
X195527D01*
X196544Y126273D01*
X197456Y126799D01*
X198201Y127544D01*
X198727Y128456D01*
X199000Y129473D01*
Y130527D01*
X198727Y131544D01*
X198201Y132456D01*
X197456Y133201D01*
X196544Y133727D01*
X195527Y134000D01*
D02*
G37*
G36*
X125527D02*
X124473D01*
X123456Y133727D01*
X122544Y133201D01*
X121799Y132456D01*
X121273Y131544D01*
X121000Y130527D01*
Y129473D01*
X121273Y128456D01*
X121799Y127544D01*
X122544Y126799D01*
X123456Y126273D01*
X124473Y126000D01*
X125527D01*
X126544Y126273D01*
X127456Y126799D01*
X128201Y127544D01*
X128727Y128456D01*
X129000Y129473D01*
Y130527D01*
X128727Y131544D01*
X128201Y132456D01*
X127456Y133201D01*
X126544Y133727D01*
X125527Y134000D01*
D02*
G37*
G36*
X100527D02*
X99473D01*
X98456Y133727D01*
X97544Y133201D01*
X96799Y132456D01*
X96273Y131544D01*
X96000Y130527D01*
Y129473D01*
X96273Y128456D01*
X96799Y127544D01*
X97544Y126799D01*
X98456Y126273D01*
X99473Y126000D01*
X100527D01*
X101544Y126273D01*
X102456Y126799D01*
X103201Y127544D01*
X103727Y128456D01*
X104000Y129473D01*
Y130527D01*
X103727Y131544D01*
X103201Y132456D01*
X102456Y133201D01*
X101544Y133727D01*
X100527Y134000D01*
D02*
G37*
G36*
X49527Y133000D02*
X48473D01*
X47456Y132727D01*
X46544Y132201D01*
X45799Y131456D01*
X45273Y130544D01*
X45000Y129527D01*
Y128473D01*
X45273Y127456D01*
X45799Y126544D01*
X46544Y125799D01*
X47456Y125273D01*
X48473Y125000D01*
X49527D01*
X50544Y125273D01*
X51456Y125799D01*
X52201Y126544D01*
X52727Y127456D01*
X53000Y128473D01*
Y129527D01*
X52727Y130544D01*
X52201Y131456D01*
X51456Y132201D01*
X50544Y132727D01*
X49527Y133000D01*
D02*
G37*
G36*
X19527D02*
X18473D01*
X17456Y132727D01*
X16544Y132201D01*
X15799Y131456D01*
X15273Y130544D01*
X15000Y129527D01*
Y128473D01*
X15273Y127456D01*
X15799Y126544D01*
X16544Y125799D01*
X17456Y125273D01*
X18473Y125000D01*
X19527D01*
X20544Y125273D01*
X21456Y125799D01*
X22201Y126544D01*
X22727Y127456D01*
X23000Y128473D01*
Y129527D01*
X22727Y130544D01*
X22201Y131456D01*
X21456Y132201D01*
X20544Y132727D01*
X19527Y133000D01*
D02*
G37*
G36*
X220527Y124000D02*
X219473D01*
X218456Y123727D01*
X217544Y123201D01*
X216799Y122456D01*
X216273Y121544D01*
X216000Y120527D01*
Y119473D01*
X216273Y118456D01*
X216799Y117544D01*
X217544Y116799D01*
X218456Y116273D01*
X219473Y116000D01*
X220527D01*
X221544Y116273D01*
X222456Y116799D01*
X223201Y117544D01*
X223727Y118456D01*
X224000Y119473D01*
Y120527D01*
X223727Y121544D01*
X223201Y122456D01*
X222456Y123201D01*
X221544Y123727D01*
X220527Y124000D01*
D02*
G37*
G36*
X195527D02*
X194473D01*
X193456Y123727D01*
X192544Y123201D01*
X191799Y122456D01*
X191273Y121544D01*
X191000Y120527D01*
Y119473D01*
X191273Y118456D01*
X191799Y117544D01*
X192544Y116799D01*
X193456Y116273D01*
X194473Y116000D01*
X195527D01*
X196544Y116273D01*
X197456Y116799D01*
X198201Y117544D01*
X198727Y118456D01*
X199000Y119473D01*
Y120527D01*
X198727Y121544D01*
X198201Y122456D01*
X197456Y123201D01*
X196544Y123727D01*
X195527Y124000D01*
D02*
G37*
G36*
X125527D02*
X124473D01*
X123456Y123727D01*
X122544Y123201D01*
X121799Y122456D01*
X121273Y121544D01*
X121000Y120527D01*
Y119473D01*
X121273Y118456D01*
X121799Y117544D01*
X122544Y116799D01*
X123456Y116273D01*
X124473Y116000D01*
X125527D01*
X126544Y116273D01*
X127456Y116799D01*
X128201Y117544D01*
X128727Y118456D01*
X129000Y119473D01*
Y120527D01*
X128727Y121544D01*
X128201Y122456D01*
X127456Y123201D01*
X126544Y123727D01*
X125527Y124000D01*
D02*
G37*
G36*
X100527D02*
X99473D01*
X98456Y123727D01*
X97544Y123201D01*
X96799Y122456D01*
X96273Y121544D01*
X96000Y120527D01*
Y119473D01*
X96273Y118456D01*
X96799Y117544D01*
X97544Y116799D01*
X98456Y116273D01*
X99473Y116000D01*
X100527D01*
X101544Y116273D01*
X102456Y116799D01*
X103201Y117544D01*
X103727Y118456D01*
X104000Y119473D01*
Y120527D01*
X103727Y121544D01*
X103201Y122456D01*
X102456Y123201D01*
X101544Y123727D01*
X100527Y124000D01*
D02*
G37*
G36*
X49527Y123000D02*
X48473D01*
X47456Y122727D01*
X46544Y122201D01*
X45799Y121456D01*
X45273Y120544D01*
X45000Y119527D01*
Y118473D01*
X45273Y117456D01*
X45799Y116544D01*
X46544Y115799D01*
X47456Y115273D01*
X48473Y115000D01*
X49527D01*
X50544Y115273D01*
X51456Y115799D01*
X52201Y116544D01*
X52727Y117456D01*
X53000Y118473D01*
Y119527D01*
X52727Y120544D01*
X52201Y121456D01*
X51456Y122201D01*
X50544Y122727D01*
X49527Y123000D01*
D02*
G37*
G36*
X19527D02*
X18473D01*
X17456Y122727D01*
X16544Y122201D01*
X15799Y121456D01*
X15273Y120544D01*
X15000Y119527D01*
Y118473D01*
X15273Y117456D01*
X15799Y116544D01*
X16544Y115799D01*
X17456Y115273D01*
X18473Y115000D01*
X19527D01*
X20544Y115273D01*
X21456Y115799D01*
X22201Y116544D01*
X22727Y117456D01*
X23000Y118473D01*
Y119527D01*
X22727Y120544D01*
X22201Y121456D01*
X21456Y122201D01*
X20544Y122727D01*
X19527Y123000D01*
D02*
G37*
G36*
X59287Y107149D02*
X58938Y107004D01*
X58787Y106854D01*
X58637Y107004D01*
X58287Y107149D01*
Y105732D01*
X57787D01*
Y105232D01*
X56371D01*
X56516Y104883D01*
X56666Y104732D01*
X56516Y104582D01*
X56371Y104232D01*
X57787D01*
Y103732D01*
X58287D01*
Y102316D01*
X58637Y102461D01*
X58787Y102611D01*
X58938Y102461D01*
X59287Y102316D01*
Y103732D01*
X59787D01*
Y104232D01*
X61204D01*
X61059Y104582D01*
X60909Y104732D01*
X61059Y104883D01*
X61204Y105232D01*
X59787D01*
Y105732D01*
X59287D01*
Y107149D01*
D02*
G37*
G36*
X60287D02*
Y106232D01*
X61204D01*
X61059Y106582D01*
X60637Y107004D01*
X60287Y107149D01*
D02*
G37*
G36*
X57287D02*
X56938Y107004D01*
X56516Y106582D01*
X56371Y106232D01*
X57287D01*
Y107149D01*
D02*
G37*
G36*
X220527Y114000D02*
X219473D01*
X218456Y113727D01*
X217544Y113201D01*
X216799Y112456D01*
X216273Y111544D01*
X216000Y110527D01*
Y109473D01*
X216273Y108456D01*
X216799Y107544D01*
X217544Y106799D01*
X218456Y106273D01*
X219473Y106000D01*
X220527D01*
X221544Y106273D01*
X222456Y106799D01*
X223201Y107544D01*
X223727Y108456D01*
X224000Y109473D01*
Y110527D01*
X223727Y111544D01*
X223201Y112456D01*
X222456Y113201D01*
X221544Y113727D01*
X220527Y114000D01*
D02*
G37*
G36*
X195527D02*
X194473D01*
X193456Y113727D01*
X192544Y113201D01*
X191799Y112456D01*
X191273Y111544D01*
X191000Y110527D01*
Y109473D01*
X191273Y108456D01*
X191799Y107544D01*
X192544Y106799D01*
X193456Y106273D01*
X194473Y106000D01*
X195527D01*
X196544Y106273D01*
X197456Y106799D01*
X198201Y107544D01*
X198727Y108456D01*
X199000Y109473D01*
Y110527D01*
X198727Y111544D01*
X198201Y112456D01*
X197456Y113201D01*
X196544Y113727D01*
X195527Y114000D01*
D02*
G37*
G36*
X125527D02*
X124473D01*
X123456Y113727D01*
X122544Y113201D01*
X121799Y112456D01*
X121273Y111544D01*
X121000Y110527D01*
Y109473D01*
X121273Y108456D01*
X121799Y107544D01*
X122544Y106799D01*
X123456Y106273D01*
X124473Y106000D01*
X125527D01*
X126544Y106273D01*
X127456Y106799D01*
X128201Y107544D01*
X128727Y108456D01*
X129000Y109473D01*
Y110527D01*
X128727Y111544D01*
X128201Y112456D01*
X127456Y113201D01*
X126544Y113727D01*
X125527Y114000D01*
D02*
G37*
G36*
X100527D02*
X99473D01*
X98456Y113727D01*
X97544Y113201D01*
X96799Y112456D01*
X96273Y111544D01*
X96000Y110527D01*
Y109473D01*
X96273Y108456D01*
X96799Y107544D01*
X97544Y106799D01*
X98456Y106273D01*
X99473Y106000D01*
X100527D01*
X101544Y106273D01*
X102456Y106799D01*
X103201Y107544D01*
X103727Y108456D01*
X104000Y109473D01*
Y110527D01*
X103727Y111544D01*
X103201Y112456D01*
X102456Y113201D01*
X101544Y113727D01*
X100527Y114000D01*
D02*
G37*
G36*
X49527Y113000D02*
X48473D01*
X47456Y112727D01*
X46544Y112201D01*
X45799Y111456D01*
X45273Y110544D01*
X45000Y109527D01*
Y108473D01*
X45273Y107456D01*
X45799Y106544D01*
X46544Y105799D01*
X47456Y105273D01*
X48473Y105000D01*
X49527D01*
X50544Y105273D01*
X51456Y105799D01*
X52201Y106544D01*
X52727Y107456D01*
X53000Y108473D01*
Y109527D01*
X52727Y110544D01*
X52201Y111456D01*
X51456Y112201D01*
X50544Y112727D01*
X49527Y113000D01*
D02*
G37*
G36*
X19527D02*
X18473D01*
X17456Y112727D01*
X16544Y112201D01*
X15799Y111456D01*
X15273Y110544D01*
X15000Y109527D01*
Y108473D01*
X15273Y107456D01*
X15799Y106544D01*
X16544Y105799D01*
X17456Y105273D01*
X18473Y105000D01*
X19527D01*
X20544Y105273D01*
X21456Y105799D01*
X22201Y106544D01*
X22727Y107456D01*
X23000Y108473D01*
Y109527D01*
X22727Y110544D01*
X22201Y111456D01*
X21456Y112201D01*
X20544Y112727D01*
X19527Y113000D01*
D02*
G37*
G36*
X61204Y103232D02*
X60287D01*
Y102316D01*
X60637Y102461D01*
X61059Y102883D01*
X61204Y103232D01*
D02*
G37*
G36*
X57287D02*
X56371D01*
X56516Y102883D01*
X56938Y102461D01*
X57287Y102316D01*
Y103232D01*
D02*
G37*
G36*
X224000Y104000D02*
X220500D01*
Y100500D01*
X224000D01*
Y104000D01*
D02*
G37*
G36*
X199000D02*
X195500D01*
Y100500D01*
X199000D01*
Y104000D01*
D02*
G37*
G36*
X129000D02*
X125500D01*
Y100500D01*
X129000D01*
Y104000D01*
D02*
G37*
G36*
X104000D02*
X100500D01*
Y100500D01*
X104000D01*
Y104000D01*
D02*
G37*
G36*
X219500D02*
X216000D01*
Y100500D01*
X219500D01*
Y104000D01*
D02*
G37*
G36*
X194500D02*
X191000D01*
Y100500D01*
X194500D01*
Y104000D01*
D02*
G37*
G36*
X124500D02*
X121000D01*
Y100500D01*
X124500D01*
Y104000D01*
D02*
G37*
G36*
X99500D02*
X96000D01*
Y100500D01*
X99500D01*
Y104000D01*
D02*
G37*
G36*
X49527Y103000D02*
X49500D01*
Y99500D01*
X53000D01*
Y99527D01*
X52727Y100544D01*
X52201Y101456D01*
X51456Y102201D01*
X50544Y102727D01*
X49527Y103000D01*
D02*
G37*
G36*
X48500D02*
X48473D01*
X47456Y102727D01*
X46544Y102201D01*
X45799Y101456D01*
X45273Y100544D01*
X45000Y99527D01*
Y99500D01*
X48500D01*
Y103000D01*
D02*
G37*
G36*
X224000Y99500D02*
X220500D01*
Y96000D01*
X224000D01*
Y99500D01*
D02*
G37*
G36*
X219500D02*
X216000D01*
Y96000D01*
X219500D01*
Y99500D01*
D02*
G37*
G36*
X199000D02*
X195500D01*
Y96000D01*
X199000D01*
Y99500D01*
D02*
G37*
G36*
X194500D02*
X191000D01*
Y96000D01*
X194500D01*
Y99500D01*
D02*
G37*
G36*
X129000D02*
X125500D01*
Y96000D01*
X129000D01*
Y99500D01*
D02*
G37*
G36*
X124500D02*
X121000D01*
Y96000D01*
X124500D01*
Y99500D01*
D02*
G37*
G36*
X104000D02*
X100500D01*
Y96000D01*
X104000D01*
Y99500D01*
D02*
G37*
G36*
X99500D02*
X96000D01*
Y96000D01*
X99500D01*
Y99500D01*
D02*
G37*
G36*
X53000Y98500D02*
X49500D01*
Y95000D01*
X49527D01*
X50544Y95273D01*
X51456Y95799D01*
X52201Y96544D01*
X52727Y97456D01*
X53000Y98473D01*
Y98500D01*
D02*
G37*
G36*
X48500D02*
X45000D01*
Y98473D01*
X45273Y97456D01*
X45799Y96544D01*
X46544Y95799D01*
X47456Y95273D01*
X48473Y95000D01*
X48500D01*
Y98500D01*
D02*
G37*
G36*
X220527Y94000D02*
X219473D01*
X218456Y93727D01*
X217544Y93201D01*
X216799Y92456D01*
X216273Y91544D01*
X216000Y90527D01*
Y89473D01*
X216273Y88456D01*
X216799Y87544D01*
X217544Y86799D01*
X218456Y86273D01*
X219473Y86000D01*
X220527D01*
X221544Y86273D01*
X222456Y86799D01*
X223201Y87544D01*
X223727Y88456D01*
X224000Y89473D01*
Y90527D01*
X223727Y91544D01*
X223201Y92456D01*
X222456Y93201D01*
X221544Y93727D01*
X220527Y94000D01*
D02*
G37*
G36*
X195527D02*
X194473D01*
X193456Y93727D01*
X192544Y93201D01*
X191799Y92456D01*
X191273Y91544D01*
X191000Y90527D01*
Y89473D01*
X191273Y88456D01*
X191799Y87544D01*
X192544Y86799D01*
X193456Y86273D01*
X194473Y86000D01*
X195527D01*
X196544Y86273D01*
X197456Y86799D01*
X198201Y87544D01*
X198727Y88456D01*
X199000Y89473D01*
Y90527D01*
X198727Y91544D01*
X198201Y92456D01*
X197456Y93201D01*
X196544Y93727D01*
X195527Y94000D01*
D02*
G37*
G36*
X125527D02*
X124473D01*
X123456Y93727D01*
X122544Y93201D01*
X121799Y92456D01*
X121273Y91544D01*
X121000Y90527D01*
Y89473D01*
X121273Y88456D01*
X121799Y87544D01*
X122544Y86799D01*
X123456Y86273D01*
X124473Y86000D01*
X125527D01*
X126544Y86273D01*
X127456Y86799D01*
X128201Y87544D01*
X128727Y88456D01*
X129000Y89473D01*
Y90527D01*
X128727Y91544D01*
X128201Y92456D01*
X127456Y93201D01*
X126544Y93727D01*
X125527Y94000D01*
D02*
G37*
G36*
X100527D02*
X99473D01*
X98456Y93727D01*
X97544Y93201D01*
X96799Y92456D01*
X96273Y91544D01*
X96000Y90527D01*
Y89473D01*
X96273Y88456D01*
X96799Y87544D01*
X97544Y86799D01*
X98456Y86273D01*
X99473Y86000D01*
X100527D01*
X101544Y86273D01*
X102456Y86799D01*
X103201Y87544D01*
X103727Y88456D01*
X104000Y89473D01*
Y90527D01*
X103727Y91544D01*
X103201Y92456D01*
X102456Y93201D01*
X101544Y93727D01*
X100527Y94000D01*
D02*
G37*
G36*
X220527Y84000D02*
X219473D01*
X218456Y83727D01*
X217544Y83201D01*
X216799Y82456D01*
X216273Y81544D01*
X216000Y80527D01*
Y79473D01*
X216273Y78456D01*
X216799Y77544D01*
X217544Y76799D01*
X218456Y76273D01*
X219473Y76000D01*
X220527D01*
X221544Y76273D01*
X222456Y76799D01*
X223201Y77544D01*
X223727Y78456D01*
X224000Y79473D01*
Y80527D01*
X223727Y81544D01*
X223201Y82456D01*
X222456Y83201D01*
X221544Y83727D01*
X220527Y84000D01*
D02*
G37*
G36*
X195527D02*
X194473D01*
X193456Y83727D01*
X192544Y83201D01*
X191799Y82456D01*
X191273Y81544D01*
X191000Y80527D01*
Y79473D01*
X191273Y78456D01*
X191799Y77544D01*
X192544Y76799D01*
X193456Y76273D01*
X194473Y76000D01*
X195527D01*
X196544Y76273D01*
X197456Y76799D01*
X198201Y77544D01*
X198727Y78456D01*
X199000Y79473D01*
Y80527D01*
X198727Y81544D01*
X198201Y82456D01*
X197456Y83201D01*
X196544Y83727D01*
X195527Y84000D01*
D02*
G37*
G36*
X100527D02*
X99473D01*
X98456Y83727D01*
X97544Y83201D01*
X96799Y82456D01*
X96273Y81544D01*
X96000Y80527D01*
Y79473D01*
X96273Y78456D01*
X96799Y77544D01*
X97544Y76799D01*
X98456Y76273D01*
X99473Y76000D01*
X100527D01*
X101544Y76273D01*
X102456Y76799D01*
X103201Y77544D01*
X103727Y78456D01*
X104000Y79473D01*
Y80527D01*
X103727Y81544D01*
X103201Y82456D01*
X102456Y83201D01*
X101544Y83727D01*
X100527Y84000D01*
D02*
G37*
G36*
X220527Y74000D02*
X219473D01*
X218456Y73727D01*
X217544Y73201D01*
X216799Y72456D01*
X216273Y71544D01*
X216000Y70527D01*
Y69473D01*
X216273Y68456D01*
X216799Y67544D01*
X217544Y66799D01*
X218456Y66273D01*
X219473Y66000D01*
X220527D01*
X221544Y66273D01*
X222456Y66799D01*
X223201Y67544D01*
X223727Y68456D01*
X224000Y69473D01*
Y70527D01*
X223727Y71544D01*
X223201Y72456D01*
X222456Y73201D01*
X221544Y73727D01*
X220527Y74000D01*
D02*
G37*
G36*
X195527D02*
X194473D01*
X193456Y73727D01*
X192544Y73201D01*
X191799Y72456D01*
X191273Y71544D01*
X191000Y70527D01*
Y69473D01*
X191273Y68456D01*
X191799Y67544D01*
X192544Y66799D01*
X193456Y66273D01*
X194473Y66000D01*
X195527D01*
X196544Y66273D01*
X197456Y66799D01*
X198201Y67544D01*
X198727Y68456D01*
X199000Y69473D01*
Y70527D01*
X198727Y71544D01*
X198201Y72456D01*
X197456Y73201D01*
X196544Y73727D01*
X195527Y74000D01*
D02*
G37*
G36*
X220527Y64000D02*
X219473D01*
X218456Y63727D01*
X217544Y63201D01*
X216799Y62456D01*
X216273Y61544D01*
X216000Y60527D01*
Y59473D01*
X216273Y58456D01*
X216799Y57544D01*
X217544Y56799D01*
X218456Y56273D01*
X219473Y56000D01*
X220527D01*
X221544Y56273D01*
X222456Y56799D01*
X223201Y57544D01*
X223727Y58456D01*
X224000Y59473D01*
Y60527D01*
X223727Y61544D01*
X223201Y62456D01*
X222456Y63201D01*
X221544Y63727D01*
X220527Y64000D01*
D02*
G37*
G36*
X195527D02*
X194473D01*
X193456Y63727D01*
X192544Y63201D01*
X191799Y62456D01*
X191273Y61544D01*
X191000Y60527D01*
Y59473D01*
X191273Y58456D01*
X191799Y57544D01*
X192544Y56799D01*
X193456Y56273D01*
X194473Y56000D01*
X195527D01*
X196544Y56273D01*
X197456Y56799D01*
X198201Y57544D01*
X198727Y58456D01*
X199000Y59473D01*
Y60527D01*
X198727Y61544D01*
X198201Y62456D01*
X197456Y63201D01*
X196544Y63727D01*
X195527Y64000D01*
D02*
G37*
G36*
X125527D02*
X124473D01*
X123456Y63727D01*
X122544Y63201D01*
X121799Y62456D01*
X121273Y61544D01*
X121000Y60527D01*
Y59473D01*
X121273Y58456D01*
X121799Y57544D01*
X122544Y56799D01*
X123456Y56273D01*
X124473Y56000D01*
X125527D01*
X126544Y56273D01*
X127456Y56799D01*
X128201Y57544D01*
X128727Y58456D01*
X129000Y59473D01*
Y60527D01*
X128727Y61544D01*
X128201Y62456D01*
X127456Y63201D01*
X126544Y63727D01*
X125527Y64000D01*
D02*
G37*
G36*
X100527D02*
X99473D01*
X98456Y63727D01*
X97544Y63201D01*
X96799Y62456D01*
X96273Y61544D01*
X96000Y60527D01*
Y59473D01*
X96273Y58456D01*
X96799Y57544D01*
X97544Y56799D01*
X98456Y56273D01*
X99473Y56000D01*
X100527D01*
X101544Y56273D01*
X102456Y56799D01*
X103201Y57544D01*
X103727Y58456D01*
X104000Y59473D01*
Y60527D01*
X103727Y61544D01*
X103201Y62456D01*
X102456Y63201D01*
X101544Y63727D01*
X100527Y64000D01*
D02*
G37*
G36*
X16500Y54417D02*
X16150Y54272D01*
X16000Y54121D01*
X15850Y54272D01*
X15500Y54417D01*
Y53000D01*
X15000D01*
Y52500D01*
X13584D01*
X13728Y52150D01*
X13879Y52000D01*
X13728Y51850D01*
X13584Y51500D01*
X15000D01*
Y51000D01*
X15500D01*
Y49584D01*
X15850Y49728D01*
X16000Y49879D01*
X16150Y49728D01*
X16500Y49584D01*
Y51000D01*
X17000D01*
Y51500D01*
X18417D01*
X18272Y51850D01*
X18121Y52000D01*
X18272Y52150D01*
X18417Y52500D01*
X17000D01*
Y53000D01*
X16500D01*
Y54417D01*
D02*
G37*
G36*
X17500D02*
Y53500D01*
X18417D01*
X18272Y53850D01*
X17850Y54272D01*
X17500Y54417D01*
D02*
G37*
G36*
X14500D02*
X14150Y54272D01*
X13728Y53850D01*
X13584Y53500D01*
X14500D01*
Y54417D01*
D02*
G37*
G36*
X224000Y54000D02*
X220500D01*
Y50500D01*
X224000D01*
Y54000D01*
D02*
G37*
G36*
X199000D02*
X195500D01*
Y50500D01*
X199000D01*
Y54000D01*
D02*
G37*
G36*
X104000D02*
X100500D01*
Y50500D01*
X104000D01*
Y54000D01*
D02*
G37*
G36*
X129000D02*
X125500D01*
Y50500D01*
X129000D01*
Y54000D01*
D02*
G37*
G36*
X219500D02*
X216000D01*
Y50500D01*
X219500D01*
Y54000D01*
D02*
G37*
G36*
X99500D02*
X96000D01*
Y50500D01*
X99500D01*
Y54000D01*
D02*
G37*
G36*
X194500D02*
X191000D01*
Y50500D01*
X194500D01*
Y54000D01*
D02*
G37*
G36*
X124500D02*
X121000D01*
Y50500D01*
X124500D01*
Y54000D01*
D02*
G37*
G36*
X18417Y50500D02*
X17500D01*
Y49584D01*
X17850Y49728D01*
X18272Y50150D01*
X18417Y50500D01*
D02*
G37*
G36*
X14500D02*
X13584D01*
X13728Y50150D01*
X14150Y49728D01*
X14500Y49584D01*
Y50500D01*
D02*
G37*
G36*
X224000Y49500D02*
X220500D01*
Y46000D01*
X224000D01*
Y49500D01*
D02*
G37*
G36*
X219500D02*
X216000D01*
Y46000D01*
X219500D01*
Y49500D01*
D02*
G37*
G36*
X199000D02*
X195500D01*
Y46000D01*
X199000D01*
Y49500D01*
D02*
G37*
G36*
X194500D02*
X191000D01*
Y46000D01*
X194500D01*
Y49500D01*
D02*
G37*
G36*
X129000D02*
X125500D01*
Y46000D01*
X129000D01*
Y49500D01*
D02*
G37*
G36*
X124500D02*
X121000D01*
Y46000D01*
X124500D01*
Y49500D01*
D02*
G37*
G36*
X104000D02*
X100500D01*
Y46000D01*
X104000D01*
Y49500D01*
D02*
G37*
G36*
X99500D02*
X96000D01*
Y46000D01*
X99500D01*
Y49500D01*
D02*
G37*
G36*
X28000Y44000D02*
X24500D01*
Y40500D01*
X28000D01*
Y44000D01*
D02*
G37*
G36*
X23500D02*
X20000D01*
Y40500D01*
X23500D01*
Y44000D01*
D02*
G37*
G36*
X291500Y40416D02*
X291150Y40272D01*
X291000Y40121D01*
X290850Y40272D01*
X290500Y40416D01*
Y39000D01*
X290000D01*
Y38500D01*
X288583D01*
X288728Y38150D01*
X288879Y38000D01*
X288728Y37850D01*
X288583Y37500D01*
X290000D01*
Y37000D01*
X290500D01*
Y35583D01*
X290850Y35728D01*
X291000Y35879D01*
X291150Y35728D01*
X291500Y35583D01*
Y37000D01*
X292000D01*
Y37500D01*
X293417D01*
X293272Y37850D01*
X293121Y38000D01*
X293272Y38150D01*
X293417Y38500D01*
X292000D01*
Y39000D01*
X291500D01*
Y40416D01*
D02*
G37*
G36*
X292500D02*
Y39500D01*
X293417D01*
X293272Y39850D01*
X292850Y40272D01*
X292500Y40416D01*
D02*
G37*
G36*
X289500D02*
X289150Y40272D01*
X288728Y39850D01*
X288583Y39500D01*
X289500D01*
Y40416D01*
D02*
G37*
G36*
X220527Y44000D02*
X219473D01*
X218456Y43727D01*
X217544Y43201D01*
X216799Y42456D01*
X216273Y41544D01*
X216000Y40527D01*
Y39473D01*
X216273Y38456D01*
X216799Y37544D01*
X217544Y36799D01*
X218456Y36273D01*
X219473Y36000D01*
X220527D01*
X221544Y36273D01*
X222456Y36799D01*
X223201Y37544D01*
X223727Y38456D01*
X224000Y39473D01*
Y40527D01*
X223727Y41544D01*
X223201Y42456D01*
X222456Y43201D01*
X221544Y43727D01*
X220527Y44000D01*
D02*
G37*
G36*
X195527D02*
X194473D01*
X193456Y43727D01*
X192544Y43201D01*
X191799Y42456D01*
X191273Y41544D01*
X191000Y40527D01*
Y39473D01*
X191273Y38456D01*
X191799Y37544D01*
X192544Y36799D01*
X193456Y36273D01*
X194473Y36000D01*
X195527D01*
X196544Y36273D01*
X197456Y36799D01*
X198201Y37544D01*
X198727Y38456D01*
X199000Y39473D01*
Y40527D01*
X198727Y41544D01*
X198201Y42456D01*
X197456Y43201D01*
X196544Y43727D01*
X195527Y44000D01*
D02*
G37*
G36*
X125527D02*
X124473D01*
X123456Y43727D01*
X122544Y43201D01*
X121799Y42456D01*
X121273Y41544D01*
X121000Y40527D01*
Y39473D01*
X121273Y38456D01*
X121799Y37544D01*
X122544Y36799D01*
X123456Y36273D01*
X124473Y36000D01*
X125527D01*
X126544Y36273D01*
X127456Y36799D01*
X128201Y37544D01*
X128727Y38456D01*
X129000Y39473D01*
Y40527D01*
X128727Y41544D01*
X128201Y42456D01*
X127456Y43201D01*
X126544Y43727D01*
X125527Y44000D01*
D02*
G37*
G36*
X100527D02*
X99473D01*
X98456Y43727D01*
X97544Y43201D01*
X96799Y42456D01*
X96273Y41544D01*
X96000Y40527D01*
Y39473D01*
X96273Y38456D01*
X96799Y37544D01*
X97544Y36799D01*
X98456Y36273D01*
X99473Y36000D01*
X100527D01*
X101544Y36273D01*
X102456Y36799D01*
X103201Y37544D01*
X103727Y38456D01*
X104000Y39473D01*
Y40527D01*
X103727Y41544D01*
X103201Y42456D01*
X102456Y43201D01*
X101544Y43727D01*
X100527Y44000D01*
D02*
G37*
G36*
X54527D02*
X53473D01*
X52456Y43727D01*
X51544Y43201D01*
X50799Y42456D01*
X50273Y41544D01*
X50000Y40527D01*
Y39473D01*
X50273Y38456D01*
X50799Y37544D01*
X51544Y36799D01*
X52456Y36273D01*
X53473Y36000D01*
X54527D01*
X55544Y36273D01*
X56456Y36799D01*
X57201Y37544D01*
X57727Y38456D01*
X58000Y39473D01*
Y40527D01*
X57727Y41544D01*
X57201Y42456D01*
X56456Y43201D01*
X55544Y43727D01*
X54527Y44000D01*
D02*
G37*
G36*
X44527D02*
X43473D01*
X42456Y43727D01*
X41544Y43201D01*
X40799Y42456D01*
X40273Y41544D01*
X40000Y40527D01*
Y39473D01*
X40273Y38456D01*
X40799Y37544D01*
X41544Y36799D01*
X42456Y36273D01*
X43473Y36000D01*
X44527D01*
X45544Y36273D01*
X46456Y36799D01*
X47201Y37544D01*
X47727Y38456D01*
X48000Y39473D01*
Y40527D01*
X47727Y41544D01*
X47201Y42456D01*
X46456Y43201D01*
X45544Y43727D01*
X44527Y44000D01*
D02*
G37*
G36*
X28000Y39500D02*
X24500D01*
Y36000D01*
X28000D01*
Y39500D01*
D02*
G37*
G36*
X23500D02*
X20000D01*
Y36000D01*
X23500D01*
Y39500D01*
D02*
G37*
G36*
X293417Y36500D02*
X292500D01*
Y35583D01*
X292850Y35728D01*
X293272Y36150D01*
X293417Y36500D01*
D02*
G37*
G36*
X289500D02*
X288583D01*
X288728Y36150D01*
X289150Y35728D01*
X289500Y35583D01*
Y36500D01*
D02*
G37*
G36*
X28000Y34000D02*
X24500D01*
Y30500D01*
X28000D01*
Y34000D01*
D02*
G37*
G36*
X23500D02*
X20000D01*
Y30500D01*
X23500D01*
Y34000D01*
D02*
G37*
G36*
X220527D02*
X219473D01*
X218456Y33727D01*
X217544Y33201D01*
X216799Y32456D01*
X216273Y31544D01*
X216000Y30527D01*
Y29473D01*
X216273Y28456D01*
X216799Y27544D01*
X217544Y26799D01*
X218456Y26273D01*
X219473Y26000D01*
X220527D01*
X221544Y26273D01*
X222456Y26799D01*
X223201Y27544D01*
X223727Y28456D01*
X224000Y29473D01*
Y30527D01*
X223727Y31544D01*
X223201Y32456D01*
X222456Y33201D01*
X221544Y33727D01*
X220527Y34000D01*
D02*
G37*
G36*
X195527D02*
X194473D01*
X193456Y33727D01*
X192544Y33201D01*
X191799Y32456D01*
X191273Y31544D01*
X191000Y30527D01*
Y29473D01*
X191273Y28456D01*
X191799Y27544D01*
X192544Y26799D01*
X193456Y26273D01*
X194473Y26000D01*
X195527D01*
X196544Y26273D01*
X197456Y26799D01*
X198201Y27544D01*
X198727Y28456D01*
X199000Y29473D01*
Y30527D01*
X198727Y31544D01*
X198201Y32456D01*
X197456Y33201D01*
X196544Y33727D01*
X195527Y34000D01*
D02*
G37*
G36*
X54527D02*
X53473D01*
X52456Y33727D01*
X51544Y33201D01*
X50799Y32456D01*
X50273Y31544D01*
X50000Y30527D01*
Y29473D01*
X50273Y28456D01*
X50799Y27544D01*
X51544Y26799D01*
X52456Y26273D01*
X53473Y26000D01*
X54527D01*
X55544Y26273D01*
X56456Y26799D01*
X57201Y27544D01*
X57727Y28456D01*
X58000Y29473D01*
Y30527D01*
X57727Y31544D01*
X57201Y32456D01*
X56456Y33201D01*
X55544Y33727D01*
X54527Y34000D01*
D02*
G37*
G36*
X44527D02*
X43473D01*
X42456Y33727D01*
X41544Y33201D01*
X40799Y32456D01*
X40273Y31544D01*
X40000Y30527D01*
Y29473D01*
X40273Y28456D01*
X40799Y27544D01*
X41544Y26799D01*
X42456Y26273D01*
X43473Y26000D01*
X44527D01*
X45544Y26273D01*
X46456Y26799D01*
X47201Y27544D01*
X47727Y28456D01*
X48000Y29473D01*
Y30527D01*
X47727Y31544D01*
X47201Y32456D01*
X46456Y33201D01*
X45544Y33727D01*
X44527Y34000D01*
D02*
G37*
G36*
X28000Y29500D02*
X24500D01*
Y26000D01*
X28000D01*
Y29500D01*
D02*
G37*
G36*
X23500D02*
X20000D01*
Y26000D01*
X23500D01*
Y29500D01*
D02*
G37*
G36*
X300680Y21905D02*
X299320D01*
X297986Y21640D01*
X296729Y21120D01*
X295598Y20364D01*
X294636Y19402D01*
X293880Y18271D01*
X293360Y17014D01*
X293094Y15680D01*
Y14320D01*
X293360Y12986D01*
X293880Y11729D01*
X294636Y10598D01*
X295598Y9636D01*
X296729Y8880D01*
X297986Y8360D01*
X299320Y8095D01*
X300680D01*
X302014Y8360D01*
X303271Y8880D01*
X304402Y9636D01*
X305364Y10598D01*
X306120Y11729D01*
X306640Y12986D01*
X306906Y14320D01*
Y15680D01*
X306640Y17014D01*
X306120Y18271D01*
X305364Y19402D01*
X304402Y20364D01*
X303271Y21120D01*
X302014Y21640D01*
X300680Y21905D01*
D02*
G37*
G36*
X15680D02*
X14320D01*
X12986Y21640D01*
X11729Y21120D01*
X10598Y20364D01*
X9636Y19402D01*
X8880Y18271D01*
X8360Y17014D01*
X8095Y15680D01*
Y14320D01*
X8360Y12986D01*
X8880Y11729D01*
X9636Y10598D01*
X10598Y9636D01*
X11729Y8880D01*
X12986Y8360D01*
X14320Y8095D01*
X15680D01*
X17014Y8360D01*
X18271Y8880D01*
X19402Y9636D01*
X20364Y10598D01*
X21120Y11729D01*
X21640Y12986D01*
X21905Y14320D01*
Y15680D01*
X21640Y17014D01*
X21120Y18271D01*
X20364Y19402D01*
X19402Y20364D01*
X18271Y21120D01*
X17014Y21640D01*
X15680Y21905D01*
D02*
G37*
%LPD*%
D13*
X99571Y130429D02*
X100000Y130000D01*
D24*
X37500Y188500D02*
D03*
X27500D02*
D03*
Y198500D02*
D03*
X37500D02*
D03*
Y208500D02*
D03*
X27500D02*
D03*
Y218500D02*
D03*
X37500D02*
D03*
Y228500D02*
D03*
X27500D02*
D03*
Y238500D02*
D03*
X37500D02*
D03*
X27500Y248500D02*
D03*
X37500D02*
D03*
X27500Y258500D02*
D03*
X37500D02*
D03*
X24000Y30000D02*
D03*
Y40000D02*
D03*
X49000Y169000D02*
D03*
X307000Y250000D02*
D03*
X260000Y190000D02*
D03*
X195000Y50000D02*
D03*
X125000Y200000D02*
D03*
Y150000D02*
D03*
Y100000D02*
D03*
X195000Y200000D02*
D03*
Y100000D02*
D03*
Y150000D02*
D03*
X125000Y50000D02*
D03*
X100000Y150000D02*
D03*
Y100000D02*
D03*
Y50000D02*
D03*
Y200000D02*
D03*
X220000D02*
D03*
Y50000D02*
D03*
Y100000D02*
D03*
Y150000D02*
D03*
X187165Y303150D02*
D03*
X265000Y300000D02*
D03*
X66500Y300500D02*
D03*
D25*
X47500Y188500D02*
D03*
Y198500D02*
D03*
Y208500D02*
D03*
Y218500D02*
D03*
Y228500D02*
D03*
Y238500D02*
D03*
Y248500D02*
D03*
Y258500D02*
D03*
X34000Y30000D02*
D03*
X54000D02*
D03*
X44000D02*
D03*
X34000Y40000D02*
D03*
X54000D02*
D03*
X44000D02*
D03*
X19000Y99000D02*
D03*
Y109000D02*
D03*
Y129000D02*
D03*
Y139000D02*
D03*
Y149000D02*
D03*
X49000Y159000D02*
D03*
Y99000D02*
D03*
Y109000D02*
D03*
Y119000D02*
D03*
Y129000D02*
D03*
Y139000D02*
D03*
Y149000D02*
D03*
X19000Y169000D02*
D03*
Y159000D02*
D03*
Y119000D02*
D03*
X277000Y250000D02*
D03*
X287000D02*
D03*
X297000D02*
D03*
X267000D02*
D03*
X290000Y190000D02*
D03*
X280000D02*
D03*
X270000D02*
D03*
X195000Y30000D02*
D03*
Y40000D02*
D03*
Y60000D02*
D03*
Y70000D02*
D03*
Y80000D02*
D03*
X125000Y220000D02*
D03*
Y210000D02*
D03*
Y190000D02*
D03*
Y140000D02*
D03*
Y130000D02*
D03*
Y120000D02*
D03*
Y90000D02*
D03*
Y80000D02*
D03*
Y60000D02*
D03*
X195000Y220000D02*
D03*
Y210000D02*
D03*
Y190000D02*
D03*
Y180000D02*
D03*
Y170000D02*
D03*
Y160000D02*
D03*
Y110000D02*
D03*
Y90000D02*
D03*
Y120000D02*
D03*
Y140000D02*
D03*
Y130000D02*
D03*
X125000Y40000D02*
D03*
Y70000D02*
D03*
Y110000D02*
D03*
Y160000D02*
D03*
Y170000D02*
D03*
Y180000D02*
D03*
Y30000D02*
D03*
X100000Y160000D02*
D03*
Y120000D02*
D03*
Y140000D02*
D03*
Y130000D02*
D03*
Y110000D02*
D03*
Y90000D02*
D03*
Y80000D02*
D03*
Y70000D02*
D03*
Y60000D02*
D03*
Y30000D02*
D03*
Y40000D02*
D03*
Y170000D02*
D03*
Y180000D02*
D03*
Y190000D02*
D03*
Y210000D02*
D03*
Y220000D02*
D03*
X220000D02*
D03*
Y210000D02*
D03*
Y190000D02*
D03*
Y180000D02*
D03*
Y170000D02*
D03*
Y40000D02*
D03*
Y30000D02*
D03*
Y60000D02*
D03*
Y70000D02*
D03*
Y80000D02*
D03*
Y90000D02*
D03*
Y110000D02*
D03*
Y130000D02*
D03*
Y140000D02*
D03*
Y120000D02*
D03*
Y160000D02*
D03*
X131665Y257150D02*
D03*
X192165D02*
D03*
X197165Y303150D02*
D03*
X137165D02*
D03*
X127165D02*
D03*
X147165D02*
D03*
X157165D02*
D03*
X167165D02*
D03*
X177165D02*
D03*
X275000Y300000D02*
D03*
X86500Y300500D02*
D03*
X96500D02*
D03*
X76500D02*
D03*
X300000Y15000D02*
D03*
Y300000D02*
D03*
X15000Y15000D02*
D03*
Y300000D02*
D03*
D26*
X85283Y241409D02*
D03*
Y267000D02*
D03*
D27*
X103000Y241409D02*
D03*
Y267000D02*
D03*
D28*
X240220Y277000D02*
D03*
X267779D02*
D03*
D29*
X229000Y296000D02*
D03*
D30*
X219000D02*
D03*
D31*
X26000Y179000D02*
D03*
X28000D02*
D03*
X59787Y105732D02*
D03*
Y103732D02*
D03*
X57787Y105732D02*
D03*
Y103732D02*
D03*
X78740Y277590D02*
D03*
Y275590D02*
D03*
X76740Y277590D02*
D03*
Y275590D02*
D03*
X17000Y51000D02*
D03*
Y53000D02*
D03*
X15000Y51000D02*
D03*
Y53000D02*
D03*
X26000Y177000D02*
D03*
X295000Y284000D02*
D03*
X297000D02*
D03*
X295000Y282000D02*
D03*
X297000D02*
D03*
X290000Y39000D02*
D03*
X292000Y37000D02*
D03*
Y39000D02*
D03*
X290000Y37000D02*
D03*
X280000Y147000D02*
D03*
X282000Y149000D02*
D03*
Y147000D02*
D03*
X280000Y149000D02*
D03*
X30000Y305000D02*
D03*
X28000D02*
D03*
X30000Y307000D02*
D03*
X28000D02*
D03*
Y177000D02*
D03*
X155000Y258000D02*
D03*
X153000D02*
D03*
X155000Y260000D02*
D03*
X153000D02*
D03*
D32*
X34000Y30000D02*
Y40000D01*
Y21000D02*
Y30000D01*
Y40000D02*
Y84000D01*
Y21000D02*
X43000Y12000D01*
X19000Y99000D02*
X34000Y84000D01*
X115662Y257338D02*
Y268995D01*
X125256Y247744D02*
X136071D01*
X115662Y257338D02*
X125256Y247744D01*
X136071D02*
X139000Y244815D01*
Y84000D02*
Y244815D01*
X75000Y300000D02*
X75191Y299809D01*
X75999D02*
X94705Y281103D01*
X103554D02*
X115662Y268995D01*
X75191Y299809D02*
X75999D01*
X94705Y281103D02*
X103554D01*
X125000Y70000D02*
X139000Y84000D01*
X43000Y12000D02*
X82000D01*
X100000Y30000D01*
X246779Y256000D02*
X267000Y276220D01*
Y250000D02*
Y276220D01*
X267779Y277000D01*
X246779Y233221D02*
Y256000D01*
Y233221D02*
X290000Y190000D01*
X220000Y256000D02*
X246779D01*
X197165Y278835D02*
X220000Y256000D01*
X197165Y278835D02*
Y303150D01*
X267779Y277000D02*
X275000Y284221D01*
Y300000D01*
X219000Y285000D02*
X227000Y277000D01*
X240220D01*
X219000Y285000D02*
Y296000D01*
X145000Y10000D02*
X244000D01*
X125000Y30000D02*
X145000Y10000D01*
X244000D02*
X290000Y56000D01*
Y190000D01*
X100000Y30000D02*
X125000D01*
X100000Y70000D02*
X125000D01*
M02*
