G04*
G04 #@! TF.GenerationSoftware,Altium Limited,Altium Designer,24.0.1 (36)*
G04*
G04 Layer_Color=32896*
%FSLAX25Y25*%
%MOIN*%
G70*
G04*
G04 #@! TF.SameCoordinates,A26AD350-1B62-4F7C-A742-23546F987C93*
G04*
G04*
G04 #@! TF.FilePolarity,Positive*
G04*
G01*
G75*
G36*
X169515Y140931D02*
X170348Y140792D01*
X171042Y140653D01*
X171667Y140514D01*
X172084Y140375D01*
X172431Y140306D01*
X172501Y140236D01*
X173264Y139889D01*
X173959Y139472D01*
X174584Y139056D01*
X175070Y138708D01*
X175486Y138361D01*
X175764Y138084D01*
X175972Y137875D01*
X176042Y137806D01*
X177014Y136625D01*
X177431Y136000D01*
X177708Y135445D01*
X177986Y134959D01*
X178195Y134611D01*
X178333Y134334D01*
X178403Y134264D01*
X178958Y132737D01*
X179167Y132112D01*
X179375Y131487D01*
X179514Y131001D01*
X179583Y130653D01*
X179653Y130376D01*
Y130306D01*
X179861Y128917D01*
X179931Y128293D01*
Y127667D01*
X180000Y127251D01*
Y126557D01*
X179931Y125098D01*
X179861Y124404D01*
X179792Y123848D01*
Y123293D01*
X179722Y122946D01*
X179653Y122668D01*
Y122598D01*
X179306Y121140D01*
X179097Y120446D01*
X178889Y119821D01*
X178681Y119335D01*
X178542Y118918D01*
X178472Y118640D01*
X178403Y118571D01*
X178056Y117807D01*
X177639Y117113D01*
X177292Y116488D01*
X176945Y116002D01*
X176667Y115585D01*
X176389Y115238D01*
X176250Y115029D01*
X176181Y114960D01*
X175625Y114404D01*
X175070Y113918D01*
X174514Y113571D01*
X173959Y113224D01*
X173473Y112946D01*
X173056Y112738D01*
X172778Y112669D01*
X172709Y112599D01*
X171876Y112321D01*
X171042Y112113D01*
X170209Y111974D01*
X169445Y111905D01*
X168820Y111835D01*
X168334D01*
X167987D01*
X167848D01*
X166529Y111974D01*
X165209Y112113D01*
X163890Y112321D01*
X162640Y112599D01*
X161598Y112807D01*
X161112Y112877D01*
X160765Y112946D01*
X160418Y113016D01*
X160210Y113085D01*
X160071Y113155D01*
X160001D01*
X158474Y113502D01*
X157154Y113849D01*
X156113Y114127D01*
X155210Y114404D01*
X154585Y114543D01*
X154168Y114682D01*
X153891Y114821D01*
X153821D01*
X153196Y115029D01*
X152641Y115238D01*
X152155Y115377D01*
X151807Y115515D01*
X151460Y115654D01*
X151252Y115724D01*
X151113Y115793D01*
X151043D01*
X152293Y112460D01*
X151460Y113224D01*
X150627Y113918D01*
X150280Y114196D01*
X150002Y114404D01*
X149863Y114474D01*
X149794Y114543D01*
X148752Y115168D01*
X147919Y115585D01*
X147572Y115793D01*
X147363Y115932D01*
X147224Y116002D01*
X147155D01*
X146183Y116418D01*
X145349Y116696D01*
X145002Y116835D01*
X144725Y116974D01*
X144586Y117043D01*
X144516D01*
X144030Y117182D01*
X143613Y117321D01*
X143336Y117390D01*
X143058Y117460D01*
X142711Y117599D01*
X142641D01*
X142294Y117668D01*
X142086Y117738D01*
X142016Y117807D01*
X142433D01*
X144030Y118015D01*
X145627Y118154D01*
X148821Y118224D01*
X150349Y118154D01*
X151807Y118085D01*
X153127Y118015D01*
X154446Y117877D01*
X155627Y117738D01*
X156738Y117599D01*
X157640Y117390D01*
X158474Y117252D01*
X159099Y117182D01*
X159585Y117043D01*
X159862Y116974D01*
X160001D01*
X161251Y116765D01*
X162432Y116557D01*
X163473Y116488D01*
X164515D01*
X165487Y116557D01*
X166320Y116696D01*
X167154Y116835D01*
X167848Y117043D01*
X168473Y117252D01*
X169028Y117390D01*
X169515Y117599D01*
X169931Y117807D01*
X170209Y117946D01*
X170417Y118085D01*
X170556Y118224D01*
X170626D01*
X171320Y118779D01*
X171876Y119335D01*
X172362Y119960D01*
X172848Y120654D01*
X173542Y121973D01*
X173959Y123293D01*
X174237Y124473D01*
X174306Y125029D01*
X174375Y125445D01*
X174445Y125862D01*
Y126348D01*
X174375Y127320D01*
X174237Y128293D01*
X174098Y129126D01*
X173820Y129959D01*
X173195Y131348D01*
X172431Y132528D01*
X171667Y133362D01*
X171042Y134056D01*
X170765Y134264D01*
X170556Y134403D01*
X170487Y134542D01*
X170417D01*
X169653Y134959D01*
X168820Y135375D01*
X167917Y135653D01*
X167015Y135861D01*
X165209Y136070D01*
X163543Y136139D01*
X162709Y136070D01*
X162015D01*
X161321Y136000D01*
X160765Y135931D01*
X160279Y135861D01*
X159932Y135792D01*
X159723Y135723D01*
X159654D01*
X158057Y135375D01*
X156460Y135167D01*
X154932Y134889D01*
X153613Y134750D01*
X152432Y134611D01*
X151946Y134542D01*
X151530Y134473D01*
X151182D01*
X150974Y134403D01*
X150835D01*
X150766D01*
X149933Y134334D01*
X149169Y134264D01*
X147849Y134125D01*
X146808Y134056D01*
X145974Y133987D01*
X145349Y133917D01*
X144933D01*
X144655D01*
X144586D01*
X144030D01*
X143544D01*
X143127D01*
X142780D01*
X142502D01*
X142294D01*
X142225D01*
X142155D01*
X143961Y134681D01*
X145419Y135375D01*
X146183Y135723D01*
X146877Y136070D01*
X147433Y136417D01*
X147919Y136695D01*
X148196Y136834D01*
X148335Y136903D01*
X149238Y137459D01*
X150002Y137945D01*
X150627Y138431D01*
X151113Y138847D01*
X151530Y139264D01*
X151877Y139542D01*
X152016Y139681D01*
X152085Y139750D01*
X150835Y136209D01*
X150974Y136278D01*
X151252Y136417D01*
X151669Y136556D01*
X152085Y136764D01*
X152571Y136972D01*
X152918Y137181D01*
X153196Y137250D01*
X153335Y137320D01*
X154307Y137736D01*
X155418Y138084D01*
X156529Y138500D01*
X157571Y138847D01*
X158543Y139125D01*
X159307Y139403D01*
X159585Y139472D01*
X159793Y139542D01*
X159932Y139611D01*
X160001D01*
X161529Y140028D01*
X162918Y140306D01*
X164237Y140583D01*
X165348Y140722D01*
X166251Y140861D01*
X166945Y140931D01*
X167223Y141000D01*
X167431D01*
X167501D01*
X167570D01*
X168542D01*
X169515Y140931D01*
D02*
G37*
G36*
X135211Y125723D02*
X139864Y121349D01*
X138822Y121765D01*
X137642Y122182D01*
X136461Y122598D01*
X135350Y122946D01*
X134309Y123223D01*
X133475Y123432D01*
X133128Y123501D01*
X132920Y123571D01*
X132781Y123640D01*
X132711D01*
X131114Y123987D01*
X129725Y124334D01*
X128545Y124612D01*
X127642Y124751D01*
X126948Y124959D01*
X126462Y125029D01*
X126115Y125098D01*
X126045D01*
X125281Y125237D01*
X124656Y125307D01*
X124031Y125376D01*
X123545Y125445D01*
X123198Y125515D01*
X122851Y125584D01*
X122712D01*
X122643D01*
X125628Y126209D01*
X126809Y126487D01*
X128059Y126765D01*
X129239Y127043D01*
X130420Y127320D01*
X131392Y127598D01*
X132225Y127806D01*
X132503Y127876D01*
X132711Y127945D01*
X132850Y128015D01*
X132920D01*
X134447Y128431D01*
X135836Y128848D01*
X137017Y129195D01*
X138058Y129542D01*
X138822Y129820D01*
X139447Y130028D01*
X139794Y130167D01*
X139933Y130237D01*
X135211Y125723D01*
D02*
G37*
G36*
X179653Y96697D02*
X178750D01*
X178681Y97531D01*
X178542Y98225D01*
X178403Y98781D01*
X178264Y99197D01*
X178056Y99544D01*
X177917Y99753D01*
X177847Y99892D01*
X177778Y99961D01*
X177361Y100239D01*
X176875Y100516D01*
X175695Y100864D01*
X175139Y100933D01*
X174723Y101003D01*
X174445Y101072D01*
X174306D01*
X151807D01*
X174514Y88364D01*
X175417Y88434D01*
X176111Y88503D01*
X176736Y88573D01*
X177153Y88712D01*
X177500Y88781D01*
X177778Y88920D01*
X177847Y88989D01*
X177917D01*
X178195Y89267D01*
X178333Y89614D01*
X178611Y90517D01*
X178681Y90934D01*
X178750Y91281D01*
Y91628D01*
X179653D01*
Y79754D01*
X178611D01*
X178542Y80379D01*
X178403Y80934D01*
X178195Y81351D01*
X178056Y81768D01*
X177847Y82045D01*
X177639Y82254D01*
X177570Y82323D01*
X177500Y82393D01*
X177084Y82670D01*
X176528Y82879D01*
X175417Y83087D01*
X174931Y83157D01*
X174514Y83226D01*
X174167D01*
X174098D01*
X147710Y83295D01*
X147085Y83226D01*
X146530Y83157D01*
X146044Y83018D01*
X145627Y82879D01*
X145349Y82740D01*
X145141Y82601D01*
X145002Y82462D01*
X144933D01*
X144586Y82115D01*
X144308Y81698D01*
X143961Y80726D01*
X143822Y80309D01*
Y80032D01*
X143752Y79754D01*
Y79685D01*
X142780Y79823D01*
Y91837D01*
X143752Y91767D01*
X143822Y91073D01*
X143961Y90448D01*
X144099Y89892D01*
X144308Y89406D01*
X144586Y89059D01*
X144863Y88712D01*
X145488Y88226D01*
X146044Y87948D01*
X146599Y87809D01*
X146947Y87739D01*
X147016D01*
X147085D01*
X167362Y87670D01*
X142780Y100864D01*
Y108988D01*
X143613D01*
X143683Y108363D01*
X143752Y107877D01*
X144169Y107044D01*
X144725Y106419D01*
X145349Y105933D01*
X145974Y105655D01*
X146460Y105516D01*
X146877Y105447D01*
X146947D01*
X147016D01*
X174098D01*
X174931Y105516D01*
X175695Y105586D01*
X176320Y105725D01*
X176806Y105863D01*
X177153Y106002D01*
X177431Y106072D01*
X177570Y106211D01*
X177639D01*
X177986Y106558D01*
X178264Y106905D01*
X178403Y107391D01*
X178542Y107877D01*
X178611Y108294D01*
X178681Y108641D01*
Y108988D01*
X179653D01*
Y96697D01*
D02*
G37*
G36*
Y64408D02*
X178611D01*
Y64685D01*
X178542Y64963D01*
Y65449D01*
X178472Y65866D01*
Y66005D01*
X178195Y66630D01*
X177847Y67046D01*
X177570Y67324D01*
X177431Y67394D01*
X177014Y67532D01*
X176528Y67602D01*
X175417Y67671D01*
X174931Y67741D01*
X174514D01*
X174167D01*
X174098D01*
X172848D01*
X171459D01*
X170140Y67671D01*
X168820Y67602D01*
X167640Y67532D01*
X167154D01*
X166667D01*
X166320Y67463D01*
X166043D01*
X165904D01*
X165834D01*
X163959Y67324D01*
X162223Y67116D01*
X160696Y66977D01*
X159376Y66838D01*
X158335Y66699D01*
X157849Y66630D01*
X157501Y66560D01*
X157224D01*
X157015Y66491D01*
X156877D01*
X156807D01*
X155279Y66213D01*
X154654Y66074D01*
X154029Y65866D01*
X153543Y65727D01*
X153196Y65658D01*
X152918Y65519D01*
X152849D01*
X152155Y65241D01*
X151530Y65033D01*
X150974Y64824D01*
X150557Y64616D01*
X150210Y64408D01*
X149933Y64338D01*
X149794Y64199D01*
X149724D01*
X148891Y63644D01*
X148196Y63158D01*
X147919Y62949D01*
X147710Y62811D01*
X147572Y62741D01*
X147502Y62672D01*
X147155Y62394D01*
X146877Y62116D01*
X146460Y61769D01*
X146252Y61630D01*
X146183Y61561D01*
X145835Y61213D01*
X145697Y61075D01*
X146113Y60727D01*
X146460Y60450D01*
X146808Y60172D01*
X147155Y59894D01*
X147224Y59825D01*
X147294D01*
X147988Y59408D01*
X148613Y58991D01*
X148891Y58852D01*
X149099Y58714D01*
X149238Y58644D01*
X149308D01*
X150210Y58158D01*
X151182Y57741D01*
X151599Y57533D01*
X151946Y57464D01*
X152155Y57325D01*
X152224D01*
X153543Y56839D01*
X154099Y56700D01*
X154654Y56492D01*
X155140Y56353D01*
X155488Y56283D01*
X155765Y56214D01*
X155835D01*
X156252Y56144D01*
X156529Y56075D01*
X156807D01*
X156877D01*
X157987Y55936D01*
X159168Y55867D01*
X160487Y55728D01*
X161876Y55658D01*
X164723Y55450D01*
X167501Y55380D01*
X168820Y55311D01*
X170070Y55242D01*
X171181D01*
X172153D01*
X172987Y55172D01*
X173611D01*
X173959D01*
X174098D01*
X174653D01*
X175209D01*
X175695Y55242D01*
X176042D01*
X176320D01*
X176528Y55311D01*
X176667D01*
X176736D01*
X177292Y55450D01*
X177708Y55589D01*
X177986Y55797D01*
X178056Y55867D01*
X178333Y56144D01*
X178472Y56422D01*
X178611Y56630D01*
Y56700D01*
X178681Y57117D01*
Y58089D01*
X179653Y58158D01*
Y45798D01*
X178750Y45728D01*
X178681Y46353D01*
X178611Y46839D01*
X178472Y47256D01*
X178333Y47603D01*
X178195Y47811D01*
X178125Y48020D01*
X177986Y48089D01*
Y48159D01*
X177639Y48367D01*
X177222Y48575D01*
X176111Y48853D01*
X175625Y48923D01*
X175209D01*
X174931Y48992D01*
X174792D01*
X172292Y49131D01*
X170001Y49339D01*
X167848Y49547D01*
X165834Y49756D01*
X164029Y49964D01*
X162362Y50242D01*
X160835Y50450D01*
X159446Y50728D01*
X158265Y50936D01*
X157224Y51145D01*
X156390Y51353D01*
X155627Y51492D01*
X155071Y51631D01*
X154724Y51770D01*
X154446Y51839D01*
X154377D01*
X153404Y52186D01*
X152502Y52533D01*
X151669Y52950D01*
X150835Y53367D01*
X150210Y53714D01*
X149655Y53992D01*
X149377Y54200D01*
X149238Y54269D01*
X148127Y54894D01*
X147641Y55242D01*
X147224Y55519D01*
X146808Y55797D01*
X146530Y55936D01*
X146391Y56075D01*
X146322Y56144D01*
X145419Y56839D01*
X144725Y57394D01*
X144308Y57741D01*
X144169Y57811D01*
Y57880D01*
X143544Y58436D01*
X143058Y58991D01*
X142780Y59339D01*
X142641Y59408D01*
Y59477D01*
X142225Y59964D01*
X141947Y60311D01*
X141808Y60450D01*
X141739Y60519D01*
X141530Y60797D01*
X141461Y60866D01*
X141530D01*
X141739Y61213D01*
X141947Y61491D01*
X142086Y61769D01*
X142155Y61838D01*
X142502Y62325D01*
X142989Y62880D01*
X143405Y63297D01*
X143475Y63436D01*
X143544Y63505D01*
X144308Y64338D01*
X145072Y65102D01*
X145349Y65380D01*
X145627Y65588D01*
X145766Y65727D01*
X145835Y65797D01*
X146322Y66213D01*
X146877Y66560D01*
X147988Y67324D01*
X148474Y67602D01*
X148891Y67880D01*
X149169Y68019D01*
X149238Y68088D01*
X150835Y68921D01*
X151530Y69269D01*
X152224Y69546D01*
X152849Y69824D01*
X153266Y70032D01*
X153543Y70102D01*
X153682Y70171D01*
X153821D01*
X153891D01*
X155349Y70727D01*
X156946Y71213D01*
X160279Y71977D01*
X163612Y72602D01*
X165279Y72810D01*
X166876Y73018D01*
X168334Y73157D01*
X169723Y73296D01*
X170973Y73365D01*
X172084Y73435D01*
X172917Y73504D01*
X173611Y73574D01*
X174028D01*
X174098D01*
X174167D01*
X175070D01*
X175834Y73713D01*
X176389Y73782D01*
X176875Y73921D01*
X177292Y74060D01*
X177500Y74199D01*
X177639Y74268D01*
X177708Y74338D01*
X177986Y74685D01*
X178195Y75032D01*
X178472Y75865D01*
X178542Y76213D01*
X178611Y76560D01*
Y76837D01*
X179653D01*
Y64408D01*
D02*
G37*
G36*
X164515Y61213D02*
X169306Y56839D01*
X168265Y57255D01*
X167015Y57672D01*
X165834Y58089D01*
X164654Y58436D01*
X163543Y58714D01*
X163126Y58852D01*
X162709Y58922D01*
X162362Y58991D01*
X162154Y59061D01*
X162015Y59130D01*
X161946D01*
X160279Y59477D01*
X158890Y59825D01*
X157710Y60102D01*
X156738Y60241D01*
X156043Y60450D01*
X155557Y60519D01*
X155210Y60589D01*
X155140D01*
X154377Y60727D01*
X153682Y60797D01*
X153127Y60936D01*
X152571Y61005D01*
X152224Y61075D01*
X151877D01*
X151738Y61144D01*
X151669D01*
X154724Y61769D01*
X155904Y62047D01*
X157154Y62325D01*
X158404Y62602D01*
X159585Y62880D01*
X160626Y63088D01*
X161112Y63227D01*
X161460Y63297D01*
X161807Y63366D01*
X162015Y63436D01*
X162154Y63505D01*
X162223D01*
X163751Y63922D01*
X165209Y64338D01*
X166390Y64685D01*
X167431Y65033D01*
X168265Y65310D01*
X168890Y65519D01*
X169237Y65658D01*
X169376Y65727D01*
X164515Y61213D01*
D02*
G37*
G36*
X182112Y192570D02*
X181070D01*
Y192848D01*
X181001Y193126D01*
Y193612D01*
X180931Y194028D01*
Y194167D01*
X180653Y194792D01*
X180306Y195209D01*
X180028Y195487D01*
X179890Y195556D01*
X179473Y195695D01*
X178987Y195765D01*
X177876Y195834D01*
X177390Y195903D01*
X176973D01*
X176626D01*
X176557D01*
X175307D01*
X173918D01*
X172598Y195834D01*
X171279Y195765D01*
X170099Y195695D01*
X169613D01*
X169126D01*
X168779Y195626D01*
X168501D01*
X168363D01*
X168293D01*
X166418Y195487D01*
X164682Y195278D01*
X163155Y195140D01*
X161835Y195001D01*
X160794Y194862D01*
X160308Y194792D01*
X159960Y194723D01*
X159683D01*
X159474Y194653D01*
X159335D01*
X159266D01*
X157738Y194376D01*
X157113Y194237D01*
X156488Y194028D01*
X156002Y193890D01*
X155655Y193820D01*
X155377Y193681D01*
X155308D01*
X154613Y193403D01*
X153989Y193195D01*
X153433Y192987D01*
X153016Y192779D01*
X152669Y192570D01*
X152391Y192501D01*
X152252Y192362D01*
X152183D01*
X151350Y191806D01*
X150655Y191320D01*
X150378Y191112D01*
X150169Y190973D01*
X150030Y190904D01*
X149961Y190834D01*
X149614Y190557D01*
X149336Y190279D01*
X148919Y189931D01*
X148711Y189793D01*
X148642Y189723D01*
X148294Y189376D01*
X148155Y189237D01*
X148572Y188890D01*
X148919Y188612D01*
X149267Y188334D01*
X149614Y188057D01*
X149683Y187987D01*
X149753D01*
X150447Y187571D01*
X151072Y187154D01*
X151350Y187015D01*
X151558Y186876D01*
X151697Y186807D01*
X151766D01*
X152669Y186321D01*
X153641Y185904D01*
X154058Y185696D01*
X154405Y185626D01*
X154613Y185487D01*
X154683D01*
X156002Y185001D01*
X156558Y184862D01*
X157113Y184654D01*
X157599Y184515D01*
X157947Y184446D01*
X158224Y184376D01*
X158294D01*
X158710Y184307D01*
X158988Y184237D01*
X159266D01*
X159335D01*
X160446Y184099D01*
X161627Y184029D01*
X162946Y183890D01*
X164335Y183821D01*
X167182Y183613D01*
X169960Y183543D01*
X171279Y183474D01*
X172529Y183404D01*
X173640D01*
X174612D01*
X175445Y183335D01*
X176070D01*
X176418D01*
X176557D01*
X177112D01*
X177667D01*
X178154Y183404D01*
X178501D01*
X178779D01*
X178987Y183474D01*
X179126D01*
X179195D01*
X179751Y183613D01*
X180167Y183751D01*
X180445Y183960D01*
X180515Y184029D01*
X180792Y184307D01*
X180931Y184585D01*
X181070Y184793D01*
Y184862D01*
X181140Y185279D01*
Y186251D01*
X182112Y186321D01*
Y173960D01*
X181209Y173891D01*
X181140Y174516D01*
X181070Y175002D01*
X180931Y175419D01*
X180792Y175766D01*
X180653Y175974D01*
X180584Y176182D01*
X180445Y176252D01*
Y176321D01*
X180098Y176530D01*
X179681Y176738D01*
X178570Y177016D01*
X178084Y177085D01*
X177667D01*
X177390Y177155D01*
X177251D01*
X174751Y177293D01*
X172459Y177502D01*
X170307Y177710D01*
X168293Y177918D01*
X166488Y178127D01*
X164821Y178404D01*
X163293Y178613D01*
X161905Y178891D01*
X160724Y179099D01*
X159683Y179307D01*
X158849Y179516D01*
X158085Y179654D01*
X157530Y179793D01*
X157183Y179932D01*
X156905Y180002D01*
X156835D01*
X155863Y180349D01*
X154961Y180696D01*
X154127Y181113D01*
X153294Y181529D01*
X152669Y181877D01*
X152114Y182154D01*
X151836Y182363D01*
X151697Y182432D01*
X150586Y183057D01*
X150100Y183404D01*
X149683Y183682D01*
X149267Y183960D01*
X148989Y184099D01*
X148850Y184237D01*
X148781Y184307D01*
X147878Y185001D01*
X147183Y185557D01*
X146767Y185904D01*
X146628Y185973D01*
Y186043D01*
X146003Y186598D01*
X145517Y187154D01*
X145239Y187501D01*
X145100Y187571D01*
Y187640D01*
X144684Y188126D01*
X144406Y188473D01*
X144267Y188612D01*
X144197Y188682D01*
X143989Y188959D01*
X143920Y189029D01*
X143989D01*
X144197Y189376D01*
X144406Y189654D01*
X144545Y189931D01*
X144614Y190001D01*
X144961Y190487D01*
X145447Y191043D01*
X145864Y191459D01*
X145933Y191598D01*
X146003Y191667D01*
X146767Y192501D01*
X147531Y193265D01*
X147808Y193542D01*
X148086Y193751D01*
X148225Y193890D01*
X148294Y193959D01*
X148781Y194376D01*
X149336Y194723D01*
X150447Y195487D01*
X150933Y195765D01*
X151350Y196042D01*
X151628Y196181D01*
X151697Y196251D01*
X153294Y197084D01*
X153989Y197431D01*
X154683Y197709D01*
X155308Y197987D01*
X155725Y198195D01*
X156002Y198264D01*
X156141Y198334D01*
X156280D01*
X156349D01*
X157808Y198889D01*
X159405Y199375D01*
X162738Y200139D01*
X166071Y200764D01*
X167738Y200973D01*
X169335Y201181D01*
X170793Y201320D01*
X172182Y201459D01*
X173432Y201528D01*
X174543Y201597D01*
X175376Y201667D01*
X176070Y201736D01*
X176487D01*
X176557D01*
X176626D01*
X177529D01*
X178293Y201875D01*
X178848Y201945D01*
X179334Y202083D01*
X179751Y202222D01*
X179959Y202361D01*
X180098Y202431D01*
X180167Y202500D01*
X180445Y202847D01*
X180653Y203195D01*
X180931Y204028D01*
X181001Y204375D01*
X181070Y204722D01*
Y205000D01*
X182112D01*
Y192570D01*
D02*
G37*
G36*
X166974Y189376D02*
X171765Y185001D01*
X170723Y185418D01*
X169474Y185835D01*
X168293Y186251D01*
X167113Y186598D01*
X166002Y186876D01*
X165585Y187015D01*
X165168Y187084D01*
X164821Y187154D01*
X164613Y187223D01*
X164474Y187293D01*
X164404D01*
X162738Y187640D01*
X161349Y187987D01*
X160169Y188265D01*
X159196Y188404D01*
X158502Y188612D01*
X158016Y188682D01*
X157669Y188751D01*
X157599D01*
X156835Y188890D01*
X156141Y188959D01*
X155586Y189098D01*
X155030Y189168D01*
X154683Y189237D01*
X154336D01*
X154197Y189307D01*
X154127D01*
X157183Y189931D01*
X158363Y190209D01*
X159613Y190487D01*
X160863Y190765D01*
X162043Y191043D01*
X163085Y191251D01*
X163571Y191390D01*
X163918Y191459D01*
X164266Y191529D01*
X164474Y191598D01*
X164613Y191667D01*
X164682D01*
X166210Y192084D01*
X167668Y192501D01*
X168849Y192848D01*
X169890Y193195D01*
X170723Y193473D01*
X171349Y193681D01*
X171696Y193820D01*
X171835Y193890D01*
X166974Y189376D01*
D02*
G37*
G36*
X146281Y170419D02*
X146420Y169863D01*
X146558Y169377D01*
X146767Y169030D01*
X146906Y168822D01*
X147114Y168613D01*
X147183Y168475D01*
X147253D01*
X147669Y168266D01*
X148086Y168058D01*
X148989Y167850D01*
X149405Y167780D01*
X149753D01*
X149961D01*
X150030D01*
X176834D01*
X177667Y167850D01*
X178293Y167919D01*
X178848Y168058D01*
X179265Y168197D01*
X179612Y168266D01*
X179820Y168405D01*
X179890Y168475D01*
X179959D01*
X180237Y168683D01*
X180445Y169030D01*
X180723Y169863D01*
X180792Y170280D01*
Y170558D01*
X180862Y170835D01*
Y170905D01*
X182181Y170974D01*
X182112Y159378D01*
X180862D01*
X180792Y160003D01*
X180653Y160489D01*
X180515Y160975D01*
X180306Y161322D01*
X180098Y161600D01*
X179959Y161808D01*
X179890Y161878D01*
X179820Y161947D01*
X179403Y162225D01*
X178848Y162433D01*
X177737Y162711D01*
X177251Y162780D01*
X176834Y162850D01*
X176487D01*
X176418D01*
X174265D01*
X172182D01*
X170237D01*
X168501D01*
X167738D01*
X167043D01*
X166488D01*
X165932D01*
X165515D01*
X165238D01*
X165029D01*
X164960D01*
X165029Y162294D01*
X165168Y161739D01*
X165654Y160628D01*
X166279Y159656D01*
X167043Y158753D01*
X167807Y158059D01*
X168432Y157503D01*
X168710Y157295D01*
X168849Y157156D01*
X168988Y157017D01*
X169057D01*
X169265Y156878D01*
X169543Y156670D01*
X169890Y156392D01*
X170307Y156114D01*
X170723Y155836D01*
X171071Y155628D01*
X171349Y155489D01*
X171418Y155420D01*
X172182Y154934D01*
X172807Y154517D01*
X173362Y154101D01*
X173848Y153753D01*
X174196Y153545D01*
X174473Y153337D01*
X174612Y153267D01*
X174682Y153198D01*
X175168Y152851D01*
X175654Y152434D01*
X176765Y151601D01*
X177251Y151184D01*
X177598Y150906D01*
X177876Y150698D01*
X177945Y150628D01*
X179403Y149379D01*
X180028Y148823D01*
X180584Y148337D01*
X181070Y147920D01*
X181417Y147573D01*
X181626Y147365D01*
X181695Y147295D01*
X183292Y145629D01*
X184681Y144032D01*
X185931Y142435D01*
X186972Y140976D01*
X187875Y139587D01*
X188639Y138199D01*
X189264Y136949D01*
X189750Y135838D01*
X190167Y134727D01*
X190445Y133824D01*
X190653Y132991D01*
X190792Y132296D01*
X190931Y131810D01*
X191000Y131394D01*
Y130144D01*
X190931Y129241D01*
X190792Y128408D01*
X190653Y127644D01*
X190514Y126949D01*
X190445Y126394D01*
X190306Y126047D01*
Y125908D01*
X190028Y124866D01*
X189681Y123963D01*
X189403Y123061D01*
X189125Y122366D01*
X188847Y121811D01*
X188639Y121325D01*
X188570Y121047D01*
X188500Y120978D01*
X187667Y119380D01*
X187320Y118617D01*
X186903Y117992D01*
X186625Y117436D01*
X186347Y116950D01*
X186209Y116672D01*
X186139Y116603D01*
X185653Y115839D01*
X185306Y115145D01*
X184959Y114659D01*
X184681Y114242D01*
X184542Y113895D01*
X184403Y113686D01*
X184264Y113617D01*
Y113548D01*
X183917Y113061D01*
X183639Y112645D01*
X183501Y112436D01*
X183431Y112367D01*
X183848Y114172D01*
X183987Y115006D01*
X184125Y115700D01*
X184195Y116325D01*
X184264Y116811D01*
X184334Y117089D01*
Y117228D01*
X184473Y118061D01*
X184542Y118825D01*
X184611Y119519D01*
Y120075D01*
X184681Y120492D01*
Y122228D01*
X184611Y122714D01*
Y123477D01*
X184542Y123755D01*
Y124033D01*
X184473Y124450D01*
X184403Y124866D01*
Y125144D01*
X184334Y125422D01*
X184264Y125699D01*
Y125769D01*
X184195Y126047D01*
Y126255D01*
X184125Y126324D01*
Y126394D01*
X187111Y122991D01*
X187528Y123686D01*
X187806Y124450D01*
X188292Y125838D01*
X188570Y127227D01*
X188639Y128477D01*
Y130005D01*
X188570Y130352D01*
Y130699D01*
X188500Y130907D01*
Y131116D01*
X188222Y132088D01*
X187806Y133060D01*
X187389Y134032D01*
X186834Y134935D01*
X185723Y136741D01*
X184473Y138338D01*
X183917Y139032D01*
X183292Y139657D01*
X182806Y140213D01*
X182320Y140699D01*
X181973Y141046D01*
X181695Y141393D01*
X181487Y141532D01*
X181417Y141601D01*
X180237Y142643D01*
X178987Y143684D01*
X177737Y144726D01*
X176557Y145698D01*
X175515Y146531D01*
X175029Y146879D01*
X174682Y147226D01*
X174334Y147434D01*
X174126Y147643D01*
X173987Y147712D01*
X173918Y147781D01*
X172321Y148962D01*
X171001Y150004D01*
X169890Y150837D01*
X168988Y151462D01*
X168293Y151948D01*
X167807Y152295D01*
X167529Y152503D01*
X167460Y152573D01*
X166765Y153059D01*
X166210Y153475D01*
X165654Y153823D01*
X165238Y154101D01*
X164891Y154309D01*
X164613Y154517D01*
X164474Y154587D01*
X164404Y154656D01*
X164057Y154031D01*
X163779Y153614D01*
X163432Y153198D01*
X163155Y152920D01*
X163016Y152781D01*
X162391Y152156D01*
X161696Y151670D01*
X161488Y151462D01*
X161280Y151323D01*
X161141Y151184D01*
X161071D01*
X160169Y150628D01*
X159196Y150142D01*
X158780Y150004D01*
X158433Y149865D01*
X158224Y149795D01*
X158155D01*
X156766Y149448D01*
X156141Y149379D01*
X155516Y149240D01*
X155030D01*
X154613Y149170D01*
X154336D01*
X154266D01*
X152530Y149240D01*
X151072Y149517D01*
X149891Y150004D01*
X148919Y150490D01*
X148155Y150976D01*
X147600Y151392D01*
X147253Y151670D01*
X147183Y151809D01*
X146489Y152920D01*
X145933Y154170D01*
X145586Y155420D01*
X145308Y156670D01*
X145239Y157781D01*
X145170Y158267D01*
Y170974D01*
X146211Y171044D01*
X146281Y170419D01*
D02*
G37*
%LPC*%
G36*
X162043Y162850D02*
X159821D01*
X157669D01*
X155725D01*
X153919D01*
X153086D01*
X152391D01*
X151766D01*
X151211D01*
X150725D01*
X150447D01*
X150239D01*
X150169D01*
X149614D01*
X149197Y162780D01*
X148919D01*
X148850D01*
X148572Y161739D01*
X148433Y160697D01*
Y159725D01*
X148503Y159100D01*
X148642Y158545D01*
X148850Y157989D01*
X148989Y157572D01*
X149197Y157225D01*
X149336Y156878D01*
X149405Y156739D01*
X149475Y156670D01*
X149891Y156114D01*
X150378Y155559D01*
X150864Y155142D01*
X151419Y154795D01*
X151836Y154587D01*
X152252Y154378D01*
X152530Y154239D01*
X152600D01*
X153364Y154031D01*
X154127Y153892D01*
X154891Y153823D01*
X155516Y153753D01*
X156072Y153823D01*
X156488D01*
X156835Y153892D01*
X156905D01*
X157669Y154101D01*
X158363Y154378D01*
X158988Y154656D01*
X159474Y155003D01*
X159891Y155281D01*
X160169Y155559D01*
X160308Y155698D01*
X160377Y155767D01*
X160794Y156253D01*
X161141Y156809D01*
X161627Y157920D01*
X161974Y159100D01*
X162113Y160211D01*
Y162433D01*
X162043Y162642D01*
Y162850D01*
D02*
G37*
%LPD*%
M02*
