M48
;Layer_Color=9474304
;FILE_FORMAT=2:5
INCH,TZ
;TYPE=PLATED
T01F00S00C0.01000
T02F00S00C0.02953
T03F00S00C0.03000
T04F00S00C0.03898
T05F00S00C0.04213
T06F00S00C0.11811
%
T01
X15000Y51000
X17000
Y53000
X15000
X57787Y103732
X59787
Y105732
X57787
X280000Y147000
X282000
Y149000
X280000
X290000Y39000
X292000
Y37000
X290000
X295000Y282000
Y284000
X297000
Y282000
X155000Y260000
Y258000
X153000
Y260000
X78740Y275590
Y277590
X76740
Y275590
X30000Y305000
X28000
Y307000
X30000
X28000Y179000
X26000
Y177000
X28000
T02
X240220Y277000
X267779
T03
X24000Y30000
X34000
X44000
X54000
Y40000
X44000
X34000
X24000
X19000Y99000
Y109000
Y119000
Y129000
Y139000
Y149000
X49000
Y139000
Y129000
Y119000
Y109000
Y99000
X100000Y100000
Y110000
Y120000
Y130000
Y140000
Y150000
X125000
Y140000
Y130000
Y120000
Y110000
Y100000
Y90000
Y80000
Y70000
Y60000
Y50000
Y40000
Y30000
X100000
Y40000
Y50000
Y60000
Y70000
Y80000
Y90000
X195000
Y80000
Y70000
Y60000
Y50000
Y40000
Y30000
X220000
Y40000
Y50000
Y60000
Y70000
Y80000
Y90000
Y100000
Y110000
Y120000
Y130000
Y140000
Y150000
X195000
Y140000
Y130000
Y120000
Y110000
Y100000
Y160000
Y170000
Y180000
Y190000
Y200000
Y210000
Y220000
X220000
Y210000
Y200000
Y190000
Y180000
Y170000
Y160000
X260000Y190000
X270000
X280000
X290000
X287000Y250000
X277000
X267000
X297000
X307000
X275000Y300000
X265000
X197165Y303150
X187165
X177165
X167165
X157165
X147165
X137165
X127165
X96500Y300500
X86500
X76500
X66500
X47500Y258500
Y248500
Y238500
Y228500
Y218500
Y208500
Y198500
Y188500
X37500
X27500
Y198500
X37500
Y208500
X27500
Y218500
X37500
Y228500
X27500
Y238500
X37500
Y248500
X27500
Y258500
X37500
X49000Y169000
Y159000
X19000
Y169000
X100000Y170000
Y160000
Y180000
Y190000
Y200000
Y210000
Y220000
X125000
Y210000
Y200000
Y190000
Y180000
Y170000
Y160000
T04
X85283Y241409
X103000
Y267000
X85283
T05
X219000Y296000
X229000
T06
X15000Y15000
X300000
Y300000
X192165Y257150
X131665
X15000Y300000
M30
